<svg xmlns="http://www.w3.org/2000/svg" width="241" height="241" fill="none" viewBox="0 0 241 241"><g clip-path="url(#a)" opacity="0.6"><path fill="#B27420" d="M186.043 157.873c-22.467 36.72-70.442 48.273-107.162 25.806a77.887 77.887 0 0 1-12.237-9.243C56.276 164.871 48.943 152.878 45 139.883a75.01 75.01 0 0 1-1.869-7.441 78.146 78.146 0 0 1-1.48-17.899c.425-13.028 4.14-26.119 11.43-38.033 18.688-30.545 55.022-43.676 87.842-34.291a77.99 77.99 0 0 1 23.096 10.95 77.442 77.442 0 0 1 26.24 31.192c10.593 22.866 9.917 50.411-4.216 73.512Z"/><path fill="#F9EF88" d="M192.052 161.55c-22.467 36.72-70.441 48.273-107.16 25.806a77.939 77.939 0 0 1-12.238-9.242c-10.368-9.565-17.701-21.558-21.644-34.553a75.029 75.029 0 0 1-1.87-7.442 78.135 78.135 0 0 1-1.478-17.899c.424-13.028 4.138-26.118 11.428-38.033 18.689-30.545 55.022-43.676 87.842-34.29a77.993 77.993 0 0 1 23.097 10.95 77.45 77.45 0 0 1 26.24 31.191c10.592 22.866 9.917 50.412-4.217 73.512Z"/><path fill="#FFDC49" d="M185.035 157.258c-20.095 32.843-63.008 43.177-95.852 23.082a70.516 70.516 0 0 1-9.734-7.174 68.927 68.927 0 0 1-9.806-10.636 69.847 69.847 0 0 1-11.548-24.121 68.57 68.57 0 0 1-1.544-7.687 69.565 69.565 0 0 1-.126-18.878c1.225-9.41 4.407-18.727 9.678-27.344 15.481-25.301 44.515-37.25 72.05-32.205a69.374 69.374 0 0 1 17.935 5.905 69.576 69.576 0 0 1 5.86 3.213c.33.202.656.412.979.61a69.565 69.565 0 0 1 16.275 14.304 69.343 69.343 0 0 1 10.256 16.682c8.775 20.133 7.914 44.086-4.423 64.249Z"/><path fill="#FFEE6E" d="m156.093 58.191-99.536 72.523a69.565 69.565 0 0 1-.127-18.878l81.729-59.549a69.384 69.384 0 0 1 17.934 5.904Zm33.37 34.81L79.449 173.165a68.92 68.92 0 0 1-9.806-10.635 69.853 69.853 0 0 1-11.548-24.122l104.833-76.386a69.58 69.58 0 0 1 16.274 14.304 69.015 69.015 0 0 1 10.261 16.675Z"/><path fill="#EA9521" d="M185.034 157.257c-20.095 32.844-63.008 43.178-95.852 23.082-7.828-4.789-14.378-10.872-19.54-17.809 36.885 26.078 72.885 32.122 104.768-1.831 23.671-25.204 13.705-65.951 4.791-84.373 18.542 22.31 21.815 54.811 5.833 80.931Zm15.95 32.855c-.012-.007-.012-.007 0 0-.012-.007.008-.012 0 0Z"/><path fill="#B27420" d="m122.225 153.757.305-37.987 22.273-.749 1.36 51.684-23.938-12.948Zm-39.237-21.221 34.069-62.997 21.239 11.487-34.069 62.997-21.239-11.487Zm27.433-14.592 9.052-16.739 23.848 12.899-9.052 16.739-23.848-12.899Zm30.952 8.366-18.458-12.542 35.269-21.985 22.138 11.974-38.949 22.553Z"/><path fill="#B67317" d="m116.008 149.949.305-37.987 22.273-.749 1.36 51.684-23.938-12.948Zm-39.237-21.221 34.07-62.997 21.238 11.487-34.07 62.997-21.238-11.487Zm27.433-14.592 9.052-16.739 23.849 12.899-9.053 16.739-23.848-12.899Zm30.952 8.366-18.458-12.542 35.269-21.985 22.138 11.974-38.949 22.553Z"/><path fill="#B27420" d="m149.846 86.797-2.612.59-1.719 1.324"/></g><defs><clipPath id="a"><path fill="#fff" d="m91.344 0 149.29 91.343-91.342 149.29L0 149.292z"/></clipPath></defs></svg>