<svg xmlns="http://www.w3.org/2000/svg" width="162" height="162" fill="none" viewBox="0 0 162 162"><g clip-path="url(#a)"><path fill="#B27420" d="M35.389 105.931c-13.506-26.248-3.177-58.47 23.07-71.975a53.395 53.395 0 0 1 9.776-3.875 53.223 53.223 0 0 1 27.955-.366c1.704.434 3.377.952 5.026 1.557a53.603 53.603 0 0 1 11.013 5.512c7.481 4.891 13.826 11.732 18.208 20.249 11.234 21.833 5.978 47.798-11.216 63.681a53.494 53.494 0 0 1-14.646 9.627 53.092 53.092 0 0 1-27.624 4.257c-17.17-1.943-33.066-12.155-41.562-28.667Z"/><path fill="#F9EF88" d="M31.092 108.141c-13.505-26.248-3.177-58.47 23.07-71.974a53.39 53.39 0 0 1 9.776-3.876 53.224 53.224 0 0 1 27.955-.366c1.704.434 3.377.952 5.026 1.557a53.598 53.598 0 0 1 11.013 5.512c7.481 4.892 13.826 11.732 18.208 20.249 11.234 21.833 5.978 47.798-11.215 63.681a53.535 53.535 0 0 1-14.647 9.627 53.103 53.103 0 0 1-27.624 4.258c-17.17-1.944-33.066-12.156-41.562-28.668Z"/><path fill="#FFDC49" d="M36.105 105.561c-12.08-23.477-2.841-52.299 20.636-64.378a48.326 48.326 0 0 1 7.672-3.146 47.268 47.268 0 0 1 9.725-1.955c6.194-.58 12.39.07 18.246 1.831a47.013 47.013 0 0 1 5.053 1.835 47.693 47.693 0 0 1 11.104 6.654 47.638 47.638 0 0 1 12.57 15.414c9.306 18.086 5.959 39.353-6.81 53.686a47.56 47.56 0 0 1-9.85 8.402 47.546 47.546 0 0 1-3.971 2.288c-.236.122-.475.238-.706.357a47.702 47.702 0 0 1-14.18 4.436 47.578 47.578 0 0 1-13.427.063c-14.922-2.034-28.647-11.074-36.062-25.487Z"/><path fill="#FFEE6E" d="m104.459 123.909-7.015-84.156a47.702 47.702 0 0 1 11.105 6.654l5.76 69.1a47.612 47.612 0 0 1-9.85 8.402Zm-32.285 7.144-7.757-93.017a47.262 47.262 0 0 1 9.724-1.955c6.195-.579 12.39.07 18.247 1.831l7.39 88.636a47.703 47.703 0 0 1-14.18 4.436 47.33 47.33 0 0 1-13.424.069Z"/><path fill="#EA9521" d="M36.108 105.561c-12.08-23.477-2.84-52.3 20.637-64.379a47.648 47.648 0 0 1 17.396-5.1C45.72 48.397 29.35 67.332 37.878 98.11c6.33 22.849 33.752 31.532 47.72 32.875-19.677 2.912-39.883-6.754-49.49-25.424Zm-24.933-2.368c.009-.004.009-.004 0 0 .009-.004.005.009 0 0Z"/><path fill="#B27420" d="M60.484 69.912 82.63 83.628l-7.5 13.315-30.76-17.621 16.115-9.41ZM86.9 54.49l24.763 42.408-14.298 8.349-24.764-42.409L86.9 54.49Zm-1.228 21.27 6.58 11.269-16.055 9.374-6.58-11.268 16.055-9.375ZM69.74 90.911l13.926-6.344.31 28.496-14.904 8.703.668-30.855Z"/><path fill="#B67317" d="m64.934 67.626 22.145 13.716-7.498 13.315-30.763-17.621 16.116-9.41Zm26.415-15.423 24.764 42.408-14.298 8.349-24.764-42.409 14.298-8.348Zm-1.228 21.27 6.58 11.269-16.055 9.374-6.58-11.268 16.055-9.374ZM74.19 88.626l13.925-6.344.31 28.497-14.904 8.702.669-30.855Z"/><path fill="#B27420" d="m89.93 110.055.584-1.741-.163-1.478"/></g><defs><clipPath id="a"><path fill="#fff" d="M161.621 106.714 54.907 161.621 0 54.907 106.714 0z"/></clipPath></defs></svg>