<svg xmlns="http://www.w3.org/2000/svg" width="304" height="304" fill="none" viewBox="0 0 304 304"><g clip-path="url(#a)" filter="url(#b)"><path fill="#B27420" d="M233.256 101.13c27.297 47.279 11.1 107.726-36.179 135.023a98.815 98.815 0 0 1-17.712 8.033c-16.937 5.755-34.742 6.659-51.608 3.178a95.316 95.316 0 0 1-9.423-2.427 99.146 99.146 0 0 1-20.838-9.197c-14.257-8.366-26.59-20.436-35.447-35.776-22.706-39.329-15.32-87.763 15.02-118.642 5.234-5.343 11.156-10.142 17.726-14.309a95.617 95.617 0 0 1 3.433-2.072 97.205 97.205 0 0 1 5.036-2.714 98.22 98.22 0 0 1 50.649-10.336c31.892 2.054 62.171 19.496 79.343 49.239Z"/><path fill="#F9EF88" d="M240.987 96.662c27.296 47.278 11.099 107.726-36.179 135.022a98.75 98.75 0 0 1-17.712 8.034c-16.938 5.755-34.742 6.658-51.609 3.177a95.105 95.105 0 0 1-9.423-2.426 99.105 99.105 0 0 1-20.837-9.198c-14.258-8.366-26.591-20.435-35.448-35.776-22.706-39.328-15.32-87.763 15.02-118.641 5.234-5.343 11.156-10.142 17.726-14.309a96.135 96.135 0 0 1 3.433-2.073 96.987 96.987 0 0 1 5.037-2.714 98.215 98.215 0 0 1 50.648-10.335c31.893 2.053 62.172 19.496 79.344 49.239Z"/><path fill="#FFDC49" d="M231.971 101.877c24.415 42.288 9.927 96.358-32.361 120.773a89.355 89.355 0 0 1-13.891 6.498 87.414 87.414 0 0 1-17.79 4.48 88.564 88.564 0 0 1-33.87-1.75 86.897 86.897 0 0 1-9.499-2.937 88.225 88.225 0 0 1-21.108-11.298c-9.742-7.066-18.194-16.256-24.6-27.35-18.808-32.577-14.529-72.164 7.777-99.783a87.999 87.999 0 0 1 17.444-16.403 88.427 88.427 0 0 1 7.131-4.582c.425-.245.857-.481 1.272-.721a88.24 88.24 0 0 1 25.797-9.465 87.974 87.974 0 0 1 24.8-1.318c27.747 2.422 53.91 17.895 68.898 43.856Z"/><path fill="#FFEE6E" d="m104.057 74.098 20.487 154.834a88.25 88.25 0 0 1-21.109-11.298L86.612 90.501a87.992 87.992 0 0 1 17.445-16.403Zm58.998-16.086 22.652 171.137a87.434 87.434 0 0 1-17.79 4.481 88.61 88.61 0 0 1-33.871-1.75L112.464 68.805a88.243 88.243 0 0 1 25.797-9.465 87.572 87.572 0 0 1 24.794-1.328Z"/><path fill="#EA9521" d="M231.966 101.879c24.415 42.288 9.927 96.358-32.361 120.773-10.079 5.819-20.825 9.431-31.681 10.979 51.403-25.293 79.948-61.737 61.44-117.83-13.738-41.643-65.172-55.228-91.096-56.46 36.09-7.14 74.281 8.907 93.698 42.538Zm46.255 2.14c-.016.01-.016.01 0 0-.009-.015-.016.01 0 0Z"/><path fill="#B27420" d="m190.239 170.109-42.137-23.356 12.661-25.267 58.405 29.799-28.929 18.824Zm-47.417 30.855-49.54-76.125 25.665-16.702 49.541 76.126-25.666 16.701Zm.366-39.403-13.164-20.228 28.82-18.753 13.163 20.227-28.819 18.754Zm28.074-29.414-25.157 12.964-3.123-52.614 26.753-17.409 1.527 57.059Z"/><path fill="#B67317" d="M182.237 174.731 140.1 151.374l12.661-25.267 58.405 29.8-28.929 18.824Zm-47.417 30.855L85.28 129.46l25.665-16.701 49.541 76.126-25.666 16.701Zm.366-39.403-13.164-20.228 28.82-18.753 13.163 20.227-28.819 18.754Zm28.074-29.414-25.157 12.964-3.123-52.614 26.753-17.409 1.527 57.059Z"/><path fill="#B27420" d="m132.145 98.391-.924 3.268.433 2.716"/></g><defs><clipPath id="a"><path fill="#fff" d="M0 110.978 192.22 0l110.978 192.22-192.22 110.978z"/></clipPath><filter id="b" width="315.197" height="315.197" x="-6" y="-6" color-interpolation-filters="sRGB" filterUnits="userSpaceOnUse"><feFlood flood-opacity="0" result="BackgroundImageFix"/><feBlend in="SourceGraphic" in2="BackgroundImageFix" result="shape"/><feGaussianBlur result="effect1_foregroundBlur_226_4037" stdDeviation="3"/></filter></defs></svg>