<svg xmlns="http://www.w3.org/2000/svg" width="24" height="24" fill="none" viewBox="0 0 24 24"><path fill="url(#a)" d="M12.5 7.41V22H4.08c-1.16 0-2.11-.93-2.11-2.07V5.09c0-2.62 1.96-3.81 4.35-2.64l4.43 2.19c.96.47 1.75 1.72 1.75 2.77Z" opacity="0.4"/><path fill="url(#b)" d="M8.97 9.75H5.5c-.41 0-.75-.34-.75-.75s.34-.75.75-.75h3.47a.749.749 0 1 1 0 1.5Z"/><path fill="url(#c)" d="M8.97 13.75H5.5c-.41 0-.75-.34-.75-.75s.34-.75.75-.75h3.47a.749.749 0 1 1 0 1.5Z"/><path fill="url(#d)" d="M22 15.05v4.45a2.5 2.5 0 0 1-2.5 2.5h-7V10.42l.47.1 4.04.9.48.11 2.04.46c.49.1.94.27 1.33.52 0 .01.01.01.01.01.1.07.2.15.29.24.46.46.76 1.13.83 2.11 0 .06.01.12.01.18Z" opacity="0.6"/><path fill="url(#e)" d="M12.5 10.42v6c.46.61 1.18 1 2 1 1.39 0 2.51-1.12 2.51-2.5v-3.49l-4.04-.9-.47-.11Z"/><path fill="url(#f)" d="M21.99 14.87c-.07-.98-.37-1.65-.83-2.11-.09-.09-.19-.17-.29-.24 0 0-.01 0-.01-.01-.39-.25-.84-.42-1.33-.52l-2.04-.46-.48-.11v3.5a2.5 2.5 0 0 0 2.5 2.5A2.5 2.5 0 0 0 22 15.06v-.01c0-.06-.01-.12-.01-.18Z"/><defs><linearGradient id="a" x1="1.97021" x2="12.5002" y1="11.9998" y2="11.9998" gradientUnits="userSpaceOnUse"><stop stop-color="#EC2B1D"/><stop offset="1" stop-color="#F17D36"/></linearGradient><linearGradient id="b" x1="4.75" x2="9.72" y1="9" y2="9" gradientUnits="userSpaceOnUse"><stop stop-color="#EC2B1D"/><stop offset="1" stop-color="#F17D36"/></linearGradient><linearGradient id="c" x1="4.75" x2="9.72" y1="13" y2="13" gradientUnits="userSpaceOnUse"><stop stop-color="#EC2B1D"/><stop offset="1" stop-color="#F17D36"/></linearGradient><linearGradient id="d" x1="12.5" x2="22" y1="16.21" y2="16.21" gradientUnits="userSpaceOnUse"><stop stop-color="#EC2B1D"/><stop offset="1" stop-color="#F17D36"/></linearGradient><linearGradient id="e" x1="12.5" x2="17.01" y1="13.92" y2="13.92" gradientUnits="userSpaceOnUse"><stop stop-color="#EC2B1D"/><stop offset="1" stop-color="#F17D36"/></linearGradient><linearGradient id="f" x1="17.0098" x2="21.9998" y1="14.42" y2="14.42" gradientUnits="userSpaceOnUse"><stop stop-color="#EC2B1D"/><stop offset="1" stop-color="#F17D36"/></linearGradient></defs></svg>