<svg xmlns="http://www.w3.org/2000/svg" width="470" height="203" fill="none" viewBox="0 0 470 203"><circle cx="11" cy="36" r="5" fill="#AAFF1F"/><path fill="#FFFBEF" fill-opacity="0.6" d="m26.588 40 3.066-3.934c-.812-.15-1.46-.471-1.946-.966-.485-.504-.728-1.153-.728-1.946 0-.83.247-1.484.742-1.96.663-.663 1.615-.994 2.856-.994h4.186V40h-1.106v-3.752h-2.814L27.932 40h-1.344Zm4.06-4.69h3.01v-4.116h-3.01c-.803 0-1.433.187-1.89.56-.448.364-.672.859-.672 1.484s.238 1.13.714 1.512c.476.373 1.092.56 1.848.56Zm6.7 4.69v-7.238h1.078v4.172l3.962-4.172h1.33l-3.024 3.136L43.802 40H42.53l-2.577-3.318-1.526 1.568V40h-1.078Zm13.95-.938c-.728.737-1.629 1.106-2.702 1.106s-1.97-.369-2.688-1.106c-.71-.737-1.064-1.629-1.064-2.674 0-1.036.36-1.923 1.078-2.66.728-.747 1.629-1.12 2.702-1.12s1.97.369 2.688 1.106c.719.737 1.078 1.629 1.078 2.674 0 1.036-.364 1.927-1.092 2.674Zm-2.674.14c.775 0 1.41-.27 1.904-.812.504-.541.756-1.209.756-2.002 0-.784-.261-1.451-.784-2.002a2.499 2.499 0 0 0-1.904-.826c-.775 0-1.41.275-1.904.826-.495.541-.742 1.209-.742 2.002 0 .784.257 1.451.77 2.002a2.52 2.52 0 0 0 1.904.812Zm11.935.966c-.99 0-1.802-.317-2.436-.952-.635-.635-.999-1.433-1.092-2.394h-1.61V40h-1.078v-7.238h1.078v3.15h1.61c.112-.943.485-1.727 1.12-2.352.644-.635 1.456-.952 2.436-.952 1.064 0 1.922.364 2.576 1.092.662.728.994 1.624.994 2.688 0 1.045-.332 1.937-.994 2.674-.663.737-1.531 1.106-2.604 1.106Zm.028-.966c.756 0 1.353-.266 1.792-.798.438-.541.658-1.213.658-2.016 0-.803-.229-1.47-.686-2.002-.458-.541-1.055-.812-1.792-.812-.747 0-1.34.27-1.778.812-.439.532-.658 1.2-.658 2.002 0 .803.224 1.475.672 2.016.457.532 1.054.798 1.792.798Zm9.71.798v-7.238h1.023l2.702 3.808 2.702-3.808h1.036V40h-1.092v-5.516l-2.674 3.668-2.646-3.668V40h-1.05Zm15.878-.938c-.728.737-1.629 1.106-2.702 1.106s-1.97-.369-2.688-1.106c-.71-.737-1.064-1.629-1.064-2.674 0-1.036.36-1.923 1.078-2.66.728-.747 1.628-1.12 2.702-1.12 1.073 0 1.97.369 2.688 1.106.719.737 1.078 1.629 1.078 2.674 0 1.036-.364 1.927-1.092 2.674Zm-2.674.14c.774 0 1.41-.27 1.904-.812.504-.541.756-1.209.756-2.002 0-.784-.261-1.451-.784-2.002a2.499 2.499 0 0 0-1.904-.826c-.775 0-1.41.275-1.904.826-.495.541-.742 1.209-.742 2.002 0 .784.257 1.451.77 2.002a2.52 2.52 0 0 0 1.904.812ZM89.22 40v-7.238h3.5c.718 0 1.292.163 1.722.49.429.327.644.765.644 1.316 0 .775-.402 1.33-1.204 1.666 1.064.29 1.596.887 1.596 1.792 0 .607-.238 1.087-.714 1.442S93.648 40 92.846 40H89.22Zm1.078-.924h2.408c.513 0 .919-.107 1.218-.322.298-.215.448-.513.448-.896 0-.355-.159-.63-.476-.826-.308-.196-.752-.294-1.33-.294h-2.268v2.338Zm0-3.206h2.226c.448 0 .802-.098 1.064-.294.27-.205.406-.495.406-.868a.88.88 0 0 0-.378-.742c-.252-.187-.607-.28-1.064-.28h-2.254v2.184Zm13.131 3.192c-.728.737-1.629 1.106-2.702 1.106-1.074 0-1.97-.369-2.688-1.106-.71-.737-1.064-1.629-1.064-2.674 0-1.036.36-1.923 1.078-2.66.728-.747 1.628-1.12 2.702-1.12 1.073 0 1.969.369 2.688 1.106.718.737 1.078 1.629 1.078 2.674 0 1.036-.364 1.927-1.092 2.674Zm-2.674.14c.774 0 1.409-.27 1.904-.812.504-.541.756-1.209.756-2.002 0-.784-.262-1.451-.784-2.002a2.5 2.5 0 0 0-1.904-.826c-.775 0-1.41.275-1.904.826-.495.541-.742 1.209-.742 2.002 0 .784.256 1.451.77 2.002a2.52 2.52 0 0 0 1.904.812Zm11.935.966c-.99 0-1.802-.317-2.436-.952-.635-.635-.999-1.433-1.092-2.394h-1.61V40h-1.078v-7.238h1.078v3.15h1.61c.112-.943.485-1.727 1.12-2.352.644-.635 1.456-.952 2.436-.952 1.064 0 1.922.364 2.576 1.092.662.728.994 1.624.994 2.688 0 1.045-.332 1.937-.994 2.674-.663.737-1.531 1.106-2.604 1.106Zm.028-.966c.756 0 1.353-.266 1.792-.798.438-.541.658-1.213.658-2.016 0-.803-.229-1.47-.686-2.002-.458-.541-1.055-.812-1.792-.812-.747 0-1.34.27-1.778.812-.439.532-.658 1.2-.658 2.002 0 .803.224 1.475.672 2.016.457.532 1.054.798 1.792.798Zm9.711 3.038v-9.478h1.078v1.456c.728-1.073 1.652-1.61 2.772-1.61.924 0 1.731.345 2.422 1.036.69.681 1.036 1.596 1.036 2.744 0 1.13-.346 2.04-1.036 2.73-.691.69-1.498 1.036-2.422 1.036-1.139 0-2.063-.513-2.772-1.54v3.626h-1.078Zm3.654-3.052c.728 0 1.334-.252 1.82-.756.485-.513.728-1.2.728-2.058 0-.83-.248-1.503-.742-2.016a2.394 2.394 0 0 0-1.806-.784c-.7 0-1.312.266-1.834.798-.523.532-.784 1.204-.784 2.016s.261 1.484.784 2.016c.522.523 1.134.784 1.834.784Zm11.648-.126c-.728.737-1.628 1.106-2.702 1.106-1.073 0-1.969-.369-2.688-1.106-.709-.737-1.064-1.629-1.064-2.674 0-1.036.36-1.923 1.078-2.66.728-.747 1.629-1.12 2.702-1.12 1.074 0 1.97.369 2.688 1.106.719.737 1.078 1.629 1.078 2.674 0 1.036-.364 1.927-1.092 2.674Zm-2.674.14c.775 0 1.41-.27 1.904-.812.504-.541.756-1.209.756-2.002 0-.784-.261-1.451-.784-2.002a2.498 2.498 0 0 0-1.904-.826c-.774 0-1.409.275-1.904.826-.494.541-.742 1.209-.742 2.002 0 .784.257 1.451.77 2.002a2.52 2.52 0 0 0 1.904.812Zm8.015.966c-1.11 0-2.109-.36-2.996-1.078l.546-.798c.738.625 1.545.938 2.422.938.495 0 .915-.112 1.26-.336.355-.233.532-.55.532-.952a.976.976 0 0 0-.476-.868c-.317-.215-.765-.322-1.344-.322h-.966v-.882h.98c.476 0 .864-.112 1.162-.336a1.1 1.1 0 0 0 .448-.91c0-.327-.149-.588-.448-.784-.289-.196-.662-.294-1.12-.294-.858 0-1.591.243-2.198.728l-.532-.756c.784-.607 1.718-.91 2.8-.91.803 0 1.438.182 1.904.546.476.355.714.817.714 1.386 0 .793-.387 1.349-1.162 1.666.896.317 1.344.91 1.344 1.778 0 .607-.261 1.125-.784 1.554-.522.42-1.218.63-2.086.63ZM147.94 40v-7.238h1.022l2.702 3.808 2.702-3.808h1.036V40h-1.092v-5.516l-2.674 3.668-2.646-3.668V40h-1.05Zm15.877-.938c-.728.737-1.628 1.106-2.702 1.106-1.073 0-1.969-.369-2.688-1.106-.709-.737-1.064-1.629-1.064-2.674 0-1.036.36-1.923 1.078-2.66.728-.747 1.629-1.12 2.702-1.12 1.074 0 1.97.369 2.688 1.106.719.737 1.078 1.629 1.078 2.674 0 1.036-.364 1.927-1.092 2.674Zm-2.674.14c.775 0 1.41-.27 1.904-.812.504-.541.756-1.209.756-2.002 0-.784-.261-1.451-.784-2.002a2.498 2.498 0 0 0-1.904-.826c-.774 0-1.409.275-1.904.826-.494.541-.742 1.209-.742 2.002 0 .784.257 1.451.77 2.002a2.52 2.52 0 0 0 1.904.812Zm5.719.798v-7.238h3.5c.719 0 1.293.163 1.722.49.43.327.644.765.644 1.316 0 .775-.401 1.33-1.204 1.666 1.064.29 1.596.887 1.596 1.792 0 .607-.238 1.087-.714 1.442s-1.115.532-1.918.532h-3.626Zm1.078-.924h2.408c.514 0 .92-.107 1.218-.322.299-.215.448-.513.448-.896 0-.355-.158-.63-.476-.826-.308-.196-.751-.294-1.33-.294h-2.268v2.338Zm0-3.206h2.226c.448 0 .803-.098 1.064-.294.271-.205.406-.495.406-.868a.88.88 0 0 0-.378-.742c-.252-.187-.606-.28-1.064-.28h-2.254v2.184Zm6.775 4.242a3.56 3.56 0 0 1-.868-.112l.126-.924c.215.065.388.098.518.098.206 0 .374-.023.504-.07.131-.056.271-.191.42-.406.159-.224.28-.537.364-.938.084-.401.154-.97.21-1.708.066-.737.098-1.633.098-2.688v-.602h5.124V40h-1.078v-6.286h-3.024v.168c0 1.101-.042 2.04-.126 2.814-.084.775-.191 1.381-.322 1.82-.121.439-.294.78-.518 1.022-.224.243-.443.397-.658.462a2.273 2.273 0 0 1-.77.112ZM182.98 40l2.212-2.8c-.569-.13-1.036-.387-1.4-.77-.355-.383-.532-.854-.532-1.414 0-.672.243-1.213.728-1.624.485-.42 1.153-.63 2.002-.63h3.402V40h-1.078v-2.632h-2.002A438.999 438.999 0 0 1 184.31 40h-1.33Zm3.094-3.542h2.24v-2.744h-2.268c-.532 0-.952.121-1.26.364-.299.233-.448.56-.448.98 0 .43.159.77.476 1.022.327.252.747.378 1.26.378Zm8.974 3.71c-1.036 0-1.914-.369-2.632-1.106a3.656 3.656 0 0 1-1.078-2.646c0-1.045.345-1.941 1.036-2.688.7-.747 1.572-1.12 2.618-1.12 1.176 0 2.156.439 2.94 1.316l-.63.7c-.672-.719-1.419-1.078-2.24-1.078-.672 0-1.256.229-1.75.686a2.63 2.63 0 0 0-.84 1.666h3.29v.91h-3.304a2.67 2.67 0 0 0 .868 1.722c.504.467 1.101.7 1.792.7.765 0 1.493-.378 2.184-1.134l.714.672c-.392.467-.822.817-1.288 1.05-.458.233-1.018.35-1.68.35Zm11.103-.014c-.737 0-1.372-.2-1.904-.602-.532-.401-.798-.961-.798-1.68 0-.756.28-1.34.84-1.75.56-.41 1.311-.616 2.254-.616.747 0 1.484.103 2.212.308v-.224c0-.635-.187-1.12-.56-1.456-.373-.336-.901-.504-1.582-.504-.709 0-1.442.173-2.198.518l-.322-.882c.896-.41 1.773-.616 2.632-.616 1.027 0 1.806.266 2.338.798.504.504.756 1.213.756 2.128V40h-1.064v-1.078c-.644.821-1.512 1.232-2.604 1.232Zm.21-.868c.672 0 1.241-.182 1.708-.546.467-.364.7-.83.7-1.4v-.672a7.573 7.573 0 0 0-2.114-.308c-.663 0-1.181.135-1.554.406-.373.261-.56.62-.56 1.078 0 .439.173.789.518 1.05.355.261.789.392 1.302.392Zm6.861 2.996a3.517 3.517 0 0 1-1.54-.364l.364-.854a2.45 2.45 0 0 0 1.134.266c.327 0 .602-.103.826-.308.224-.196.444-.546.658-1.05l-3.29-7.21h1.19l2.632 6.034 2.324-6.034h1.148l-3.038 7.476c-.308.737-.648 1.26-1.022 1.568-.373.317-.835.476-1.386.476Zm6.088-.476v-2.758h.784c.644-1.185.966-2.86.966-5.026v-1.26h5.152v6.286h1.092l-.168 2.758h-.896V40h-5.852l-.196 1.806h-.882Zm1.932-2.758h3.892v-5.334h-3.038v1.008c0 1.82-.285 3.262-.854 4.326Zm7.54.952v-7.238h1.078v5.726l4.298-5.726h1.05V40h-1.078v-5.726L229.818 40h-1.036Zm10.582 0v-6.286h-2.59v-.952h6.272v.952h-2.59V40h-1.092Zm11.256-.938c-.728.737-1.629 1.106-2.702 1.106s-1.969-.369-2.688-1.106c-.709-.737-1.064-1.629-1.064-2.674 0-1.036.359-1.923 1.078-2.66.728-.747 1.629-1.12 2.702-1.12s1.969.369 2.688 1.106c.719.737 1.078 1.629 1.078 2.674 0 1.036-.364 1.927-1.092 2.674Zm-2.674.14c.775 0 1.409-.27 1.904-.812.504-.541.756-1.209.756-2.002 0-.784-.261-1.451-.784-2.002a2.498 2.498 0 0 0-1.904-.826c-.775 0-1.409.275-1.904.826-.495.541-.742 1.209-.742 2.002 0 .784.257 1.451.77 2.002a2.519 2.519 0 0 0 1.904.812Zm5.719 3.038v-9.478h1.078v1.456c.728-1.073 1.652-1.61 2.772-1.61.924 0 1.731.345 2.422 1.036.691.681 1.036 1.596 1.036 2.744 0 1.13-.345 2.04-1.036 2.73-.691.69-1.498 1.036-2.422 1.036-1.139 0-2.063-.513-2.772-1.54v3.626h-1.078Zm3.654-3.052c.728 0 1.335-.252 1.82-.756.485-.513.728-1.2.728-2.058 0-.83-.247-1.503-.742-2.016a2.394 2.394 0 0 0-1.806-.784c-.7 0-1.311.266-1.834.798-.523.532-.784 1.204-.784 2.016s.261 1.484.784 2.016c.523.523 1.134.784 1.834.784Zm5.741.812v-7.238h1.078V40h-1.078Zm-.07-8.82v-1.19h1.232v1.19h-1.232Zm3.006 8.82 2.212-2.8c-.57-.13-1.036-.387-1.4-.77-.355-.383-.532-.854-.532-1.414 0-.672.242-1.213.728-1.624.485-.42 1.152-.63 2.002-.63h3.402V40h-1.078v-2.632h-2.002l-.868 1.148c-.495.653-.873 1.148-1.134 1.484h-1.33Zm3.094-3.542h2.24v-2.744h-2.268c-.532 0-.952.121-1.26.364-.299.233-.448.56-.448.98 0 .43.158.77.476 1.022.326.252.746.378 1.26.378Z"/><circle cx="11" cy="10" r="5" fill="#FFCE1F"/><path fill="#FFFBEF" fill-opacity="0.6" d="M27.386 14V4.2h3.668c1.12 0 2.011.28 2.674.84.663.56.994 1.325.994 2.296 0 1.017-.369 1.806-1.106 2.366-.728.56-1.643.84-2.744.84h-2.38V14h-1.106Zm1.106-4.466h2.422c.812 0 1.46-.196 1.946-.588.495-.401.742-.933.742-1.596 0-.681-.238-1.204-.714-1.568-.467-.373-1.106-.56-1.918-.56h-2.478v4.312ZM36.654 14V6.762h1.078V14h-1.078Zm-.07-8.82V3.99h1.232v1.19h-1.232Zm3.65 8.82V6.762h3.5c.718 0 1.292.163 1.721.49.43.327.644.765.644 1.316 0 .775-.401 1.33-1.204 1.666 1.064.29 1.596.887 1.596 1.792 0 .607-.238 1.087-.714 1.442S44.662 14 43.86 14h-3.626Zm1.077-.924h2.408c.514 0 .92-.107 1.218-.322.299-.215.448-.513.448-.896 0-.355-.158-.63-.476-.826-.308-.196-.751-.294-1.33-.294h-2.268v2.338Zm0-3.206h2.226c.448 0 .803-.098 1.064-.294.271-.205.406-.495.406-.868a.88.88 0 0 0-.378-.742c-.252-.187-.606-.28-1.064-.28h-2.254V9.87Zm10.29 4.298c-1.018 0-1.877-.35-2.577-1.05-.69-.71-1.036-1.62-1.036-2.73 0-1.055.332-1.946.994-2.674.663-.737 1.49-1.106 2.478-1.106 1.036 0 1.858.364 2.464 1.092.607.728.91 1.643.91 2.744 0 .14-.004.266-.014.378h-5.74c.075.737.35 1.325.826 1.764.486.43 1.06.644 1.722.644.868 0 1.63-.34 2.282-1.022l.672.602c-.812.905-1.806 1.358-2.982 1.358Zm-2.52-4.214h4.661c-.065-.7-.298-1.279-.7-1.736-.392-.467-.928-.7-1.61-.7-.616 0-1.143.229-1.582.686-.438.457-.695 1.04-.77 1.75ZM56.72 14V6.762h1.08v3.122h4.172V6.762h1.078V14h-1.078v-3.164H57.8V14h-1.078Zm8.737 0V6.762h1.078v2.716h1.932c.84 0 1.526.182 2.058.546.532.355.798.896.798 1.624 0 .719-.247 1.293-.742 1.722-.495.42-1.157.63-1.988.63h-3.136Zm1.078-.952h1.96c.55 0 .975-.117 1.274-.35.308-.233.462-.574.462-1.022 0-.41-.159-.723-.476-.938-.308-.224-.742-.336-1.302-.336h-1.918v2.646Zm10.652 3.192V6.762h1.078v1.456c.728-1.073 1.652-1.61 2.772-1.61.924 0 1.732.345 2.422 1.036.691.681 1.036 1.596 1.036 2.744 0 1.13-.345 2.04-1.036 2.73-.69.69-1.498 1.036-2.422 1.036-1.138 0-2.062-.513-2.772-1.54v3.626h-1.078Zm3.654-3.052c.728 0 1.335-.252 1.82-.756.486-.513.728-1.2.728-2.058 0-.83-.247-1.503-.742-2.016a2.393 2.393 0 0 0-1.806-.784c-.7 0-1.311.266-1.834.798-.522.532-.784 1.204-.784 2.016s.262 1.484.784 2.016c.523.523 1.134.784 1.834.784Zm11.65-.126c-.729.737-1.63 1.106-2.703 1.106s-1.97-.369-2.688-1.106c-.71-.737-1.064-1.629-1.064-2.674 0-1.036.36-1.923 1.078-2.66.728-.747 1.629-1.12 2.702-1.12 1.074 0 1.97.369 2.688 1.106.719.737 1.078 1.629 1.078 2.674 0 1.036-.364 1.927-1.092 2.674Zm-2.675.14c.775 0 1.41-.27 1.904-.812.504-.541.756-1.209.756-2.002 0-.784-.261-1.451-.784-2.002a2.499 2.499 0 0 0-1.904-.826c-.774 0-1.41.275-1.904.826-.494.541-.742 1.209-.742 2.002 0 .784.257 1.451.77 2.002a2.52 2.52 0 0 0 1.904.812Zm5.369.91c-.28 0-.57-.037-.868-.112l.126-.924c.215.065.387.098.518.098.205 0 .373-.023.504-.07.13-.056.27-.191.42-.406.159-.224.28-.537.364-.938.084-.401.154-.97.21-1.708.065-.737.098-1.633.098-2.688v-.602h5.124V14h-1.078V7.714H97.58v.168c0 1.101-.042 2.04-.126 2.814-.084.775-.191 1.381-.322 1.82-.121.439-.294.78-.518 1.022-.224.243-.443.397-.658.462a2.275 2.275 0 0 1-.77.112Zm8.909-.112V6.762h1.078v2.716h1.932c.84 0 1.526.182 2.058.546.532.355.798.896.798 1.624 0 .719-.248 1.293-.742 1.722-.495.42-1.158.63-1.988.63h-3.136Zm1.078-.952h1.96c.55 0 .975-.117 1.274-.35.308-.233.462-.574.462-1.022 0-.41-.159-.723-.476-.938-.308-.224-.742-.336-1.302-.336h-1.918v2.646Zm12.461.014c-.728.737-1.629 1.106-2.702 1.106-1.074 0-1.97-.369-2.688-1.106-.71-.737-1.064-1.629-1.064-2.674 0-1.036.359-1.923 1.078-2.66.728-.747 1.628-1.12 2.702-1.12 1.073 0 1.969.369 2.688 1.106.718.737 1.078 1.629 1.078 2.674 0 1.036-.364 1.927-1.092 2.674Zm-2.674.14c.774 0 1.409-.27 1.904-.812.504-.541.756-1.209.756-2.002 0-.784-.262-1.451-.784-2.002a2.5 2.5 0 0 0-1.904-.826c-.775 0-1.41.275-1.904.826-.495.541-.742 1.209-.742 2.002 0 .784.256 1.451.77 2.002a2.519 2.519 0 0 0 1.904.812Zm5.719.798V6.762h3.5c.718 0 1.292.163 1.722.49.429.327.644.765.644 1.316 0 .775-.402 1.33-1.204 1.666 1.064.29 1.596.887 1.596 1.792 0 .607-.238 1.087-.714 1.442s-1.116.532-1.918.532h-3.626Zm1.078-.924h2.408c.513 0 .919-.107 1.218-.322.298-.215.448-.513.448-.896 0-.355-.159-.63-.476-.826-.308-.196-.752-.294-1.33-.294h-2.268v2.338Zm0-3.206h2.226c.448 0 .802-.098 1.064-.294.27-.205.406-.495.406-.868a.88.88 0 0 0-.378-.742c-.252-.187-.607-.28-1.064-.28h-2.254V9.87Zm13.131 3.192c-.728.737-1.629 1.106-2.702 1.106-1.074 0-1.97-.369-2.688-1.106-.71-.737-1.064-1.629-1.064-2.674 0-1.036.359-1.923 1.078-2.66.728-.747 1.628-1.12 2.702-1.12 1.073 0 1.969.369 2.688 1.106.718.737 1.078 1.629 1.078 2.674 0 1.036-.364 1.927-1.092 2.674Zm-2.674.14c.774 0 1.409-.27 1.904-.812.504-.541.756-1.209.756-2.002 0-.784-.262-1.451-.784-2.002a2.5 2.5 0 0 0-1.904-.826c-.775 0-1.41.275-1.904.826-.495.541-.742 1.209-.742 2.002 0 .784.256 1.451.77 2.002a2.519 2.519 0 0 0 1.904.812Zm4.501-7.532V4.34h1.26v1.33h-1.26Zm2.464 0V4.34h1.26v1.33h-1.26ZM138.031 14V6.762h1.078V14h-1.078Zm7.777 0V6.762h4.914v.952h-3.836V14h-1.078Zm6.48 2.24V6.762h1.078v1.456c.728-1.073 1.652-1.61 2.772-1.61.924 0 1.731.345 2.422 1.036.691.681 1.036 1.596 1.036 2.744 0 1.13-.345 2.04-1.036 2.73-.691.69-1.498 1.036-2.422 1.036-1.139 0-2.063-.513-2.772-1.54v3.626h-1.078Zm3.654-3.052c.728 0 1.335-.252 1.82-.756.485-.513.728-1.2.728-2.058 0-.83-.247-1.503-.742-2.016a2.394 2.394 0 0 0-1.806-.784c-.7 0-1.311.266-1.834.798-.523.532-.784 1.204-.784 2.016s.261 1.484.784 2.016c.523.523 1.134.784 1.834.784Zm5.643.812V6.762h1.078v5.726l4.298-5.726h1.05V14h-1.078V8.274L162.621 14h-1.036Z"/><path stroke="#FFFBEF" stroke-linecap="round" stroke-opacity="0.1" stroke-width="2" d="M1 81v115a6 6 0 0 0 6 6h456"/><path stroke="#fff" stroke-dasharray="8 8" stroke-opacity="0.07" d="M42.5 82v120m46-120v120m46-120v120m46-120v120m46-120v120m46-120v120m46-120v120m46-120v120m46-120v120m46-120v120"/><path stroke="#FFCE1F" stroke-width="2" d="m4 199.5 117.769-62.69a79.98 79.98 0 0 1 29.201-8.941l112.811-11.897a79.995 79.995 0 0 1 18.416.19l21.359 2.698a80.008 80.008 0 0 0 33.285-2.825L411 93.5"/><path fill="#FFCE1F" d="M377.008 82v-8.4h3.9c.968 0 1.7.248 2.196.744.384.384.576.868.576 1.452 0 .792-.368 1.396-1.104 1.812.52.2.912.464 1.176.792.264.32.396.752.396 1.296 0 .752-.28 1.324-.84 1.716-.56.392-1.328.588-2.304.588h-3.996Zm1.8-5.004h1.704c.888 0 1.332-.304 1.332-.912 0-.28-.104-.492-.312-.636-.208-.152-.508-.228-.9-.228h-1.824v1.776Zm0 3.384h2.196c.872 0 1.308-.312 1.308-.936 0-.608-.456-.912-1.368-.912h-2.136v1.848Zm12.656-4.812V82H389.7v-3.744L387.192 82h-1.716v-6.432h1.764v3.756l2.508-3.756h1.716Zm4.665 6.576c-.96 0-1.76-.324-2.4-.972-.632-.648-.948-1.44-.948-2.376 0-.928.32-1.716.96-2.364.64-.656 1.444-.984 2.412-.984 1.032 0 1.884.376 2.556 1.128l-1.068 1.08c-.448-.424-.948-.636-1.5-.636-.448 0-.82.172-1.116.516-.296.344-.444.764-.444 1.26 0 .504.148.928.444 1.272.304.336.7.504 1.188.504.504 0 .996-.228 1.476-.684l1.068 1.08a3.917 3.917 0 0 1-1.128.876c-.4.2-.9.3-1.5.3Zm9.46-.972c-.664.648-1.492.972-2.484.972s-1.82-.32-2.484-.96c-.656-.648-.984-1.444-.984-2.388 0-.936.332-1.728.996-2.376.672-.648 1.504-.972 2.496-.972s1.816.324 2.472.972c.664.64.996 1.432.996 2.376 0 .936-.336 1.728-1.008 2.376Zm-2.46-.6c.504 0 .908-.168 1.212-.504.304-.344.456-.768.456-1.272 0-.488-.16-.904-.48-1.248-.312-.352-.716-.528-1.212-.528-.504 0-.908.172-1.212.516-.304.336-.456.756-.456 1.26 0 .488.156.908.468 1.26.32.344.728.516 1.224.516ZM407.918 82v-6.432h1.824v2.64l2.304-2.64h2.1l-2.364 2.64L414.446 82h-2.16l-1.716-2.448-.828.9V82h-1.824Zm13.324-6.432V82h-1.764v-3.744L416.97 82h-1.716v-6.432h1.764v3.756l2.508-3.756h1.716Zm7.617 0V82h-1.764v-3.744L424.587 82h-1.716v-6.432h1.764v3.756l2.508-3.756h1.716Zm-1.584-1.092c-.352.32-.804.48-1.356.48s-1.008-.16-1.368-.48c-.352-.32-.568-.768-.648-1.344l1.068-.192c.168.536.484.804.948.804.464 0 .78-.268.948-.804l1.068.192c-.08.576-.3 1.024-.66 1.344Z"/><path stroke="#AAFF1F" stroke-width="2" d="m4.5 200 168.019-41.65a80 80 0 0 1 19.249-2.35h116.775a79.99 79.99 0 0 0 22.453-3.216L458.5 115.5"/><path fill="#AAFF1F" d="M445.624 138.144c-1.04 0-1.96-.332-2.76-.996l.972-1.404c.6.48 1.212.72 1.836.72.496 0 .888-.172 1.176-.516.288-.344.464-.808.528-1.392-.448.384-1.016.576-1.704.576-.92 0-1.652-.24-2.196-.72-.536-.488-.804-1.16-.804-2.016 0-.848.296-1.548.888-2.1.6-.56 1.372-.84 2.316-.84.552 0 1.012.072 1.38.216.376.144.724.376 1.044.696.664.664.996 1.728.996 3.192 0 1.392-.32 2.504-.96 3.336-.64.832-1.544 1.248-2.712 1.248Zm-.72-4.896c.264.232.62.348 1.068.348.448 0 .8-.116 1.056-.348.256-.24.384-.548.384-.924s-.132-.684-.396-.924-.624-.36-1.08-.36c-.448 0-.8.12-1.056.36-.248.232-.372.544-.372.936 0 .376.132.68.396.912Zm8.643 4.896a4.397 4.397 0 0 1-3.144-1.26l1.116-1.332c.672.608 1.34.912 2.004.912.44 0 .784-.104 1.032-.312.248-.208.372-.5.372-.876a.97.97 0 0 0-.408-.828c-.272-.208-.632-.312-1.08-.312-.448 0-.916.104-1.404.312l-1.068-.708.24-4.14h5.16v1.62h-3.576l-.096 1.452a4.55 4.55 0 0 1 1.104-.144c.872 0 1.58.224 2.124.672.544.448.816 1.128.816 2.04 0 .888-.292 1.596-.876 2.124-.576.52-1.348.78-2.316.78Zm7.942-4.968c-.384.416-.876.624-1.476.624s-1.088-.204-1.464-.612c-.376-.416-.564-.928-.564-1.536s.192-1.116.576-1.524c.384-.416.876-.624 1.476-.624s1.088.208 1.464.624c.376.408.564.916.564 1.524 0 .6-.192 1.108-.576 1.524ZM458.825 138l6.132-8.4h1.428l-6.132 8.4h-1.428Zm7.824-.528c-.384.416-.876.624-1.476.624s-1.088-.204-1.464-.612c-.376-.416-.564-.928-.564-1.536s.192-1.116.576-1.524c.384-.416.876-.624 1.476-.624s1.088.208 1.464.624c.376.408.564.916.564 1.524 0 .6-.192 1.108-.576 1.524Zm-6.612-4.764c.24 0 .428-.1.564-.3.136-.208.204-.46.204-.756 0-.288-.076-.536-.228-.744-.144-.208-.332-.312-.564-.312-.24 0-.428.1-.564.3-.136.2-.204.452-.204.756 0 .288.072.536.216.744.152.208.344.312.576.312Zm5.16 4.296c.24 0 .428-.1.564-.3.136-.208.204-.46.204-.756 0-.288-.076-.536-.228-.744-.144-.208-.332-.312-.564-.312-.24 0-.428.1-.564.3-.136.2-.204.452-.204.756 0 .288.072.536.216.744.152.208.344.312.576.312Z"/><circle cx="409.5" cy="93.5" r="3.5" fill="#FFCE1F"/><circle cx="456.5" cy="115.5" r="3.5" fill="#AAFF1F"/></svg>