<svg xmlns="http://www.w3.org/2000/svg" width="24" height="24" fill="none" viewBox="0 0 24 24"><g clip-path="url(#a)"><path fill="#B27420" d="M22.376 11.69c0 5.902-4.785 10.687-10.688 10.687a10.643 10.643 0 0 1-7.849-3.435A10.628 10.628 0 0 1 1 11.688 10.69 10.69 0 0 1 8.822 1.39a10.696 10.696 0 0 1 3.485-.372 10.62 10.62 0 0 1 5.302 1.77 10.677 10.677 0 0 1 4.768 8.901Z"/><path fill="#F9EF88" d="M23.342 11.69c0 5.902-4.785 10.687-10.688 10.687a10.643 10.643 0 0 1-7.849-3.435 10.628 10.628 0 0 1-2.84-7.254A10.692 10.692 0 0 1 9.788 1.39a10.696 10.696 0 0 1 3.485-.372 10.62 10.62 0 0 1 5.302 1.77 10.677 10.677 0 0 1 4.768 8.901Z"/><path fill="#FFDC49" d="M22.214 11.69a9.56 9.56 0 0 1-11.212 9.417 9.453 9.453 0 0 1-1.908-.543 9.578 9.578 0 0 1-5.174-4.983 9.529 9.529 0 0 1-.825-3.89 9.564 9.564 0 0 1 6.123-8.924 9.515 9.515 0 0 1 3.436-.637l.158.002a9.511 9.511 0 0 1 5.321 1.726 9.54 9.54 0 0 1 4.081 7.831Z"/><path fill="#FFEE6E" d="M11.739 2.173 5.286 17.779A9.538 9.538 0 0 1 3.92 15.58L9.218 2.766a9.515 9.515 0 0 1 2.52-.593Zm6.394 1.683-7.131 17.25a9.453 9.453 0 0 1-1.908-.542 9.578 9.578 0 0 1-3.077-1.995l6.795-16.437a9.541 9.541 0 0 1 5.321 1.724Z"/><path fill="#EA9521" d="M22.214 11.69a9.56 9.56 0 0 1-9.56 9.56 9.529 9.529 0 0 1-3.56-.686c6.18.411 10.824-1.458 12.123-7.712C22.182 8.21 18.1 4.157 15.74 2.64a9.562 9.562 0 0 1 6.475 9.05Z"/><path fill="#B27420" d="m14.639 16.199-2.683-4.466 2.552-1.681L18.366 16l-3.727.199Zm-6.108.325-.524-9.806 3.307-.177.523 9.807-3.306.176Zm2.164-3.67-.139-2.605 3.713-.198.139 2.605-3.713.198Zm4.22-1.236-3.057-.146 2.552-5.096 3.446-.184-2.942 5.426Z"/><path fill="#B67317" d="m13.639 16.198-2.683-4.465 2.552-1.681L17.366 16l-3.727.198Zm-6.108.326-.524-9.807 3.307-.176.523 9.807-3.306.176Zm2.164-3.67-.139-2.606 3.713-.198.139 2.606-3.713.198Zm4.22-1.236-3.057-.146 2.552-5.096 3.446-.184-2.942 5.426Z"/><path fill="#B27420" d="m13.055 5.966-.263.256-.107.277"/></g><defs><clipPath id="a"><path fill="#fff" d="M0 0h24v24H0z"/></clipPath></defs></svg>