<svg xmlns="http://www.w3.org/2000/svg" width="38" height="38" fill="none" viewBox="0 0 38 38"><path fill="#B9541C" d="M6 3.34a1.7 1.7 0 0 1 2.226-1.615l9.992 3.256a1.7 1.7 0 0 0 1.052 0l9.992-3.256a1.7 1.7 0 0 1 2.226 1.616v21.744a1.7 1.7 0 0 1-.652 1.338L19.79 35.06a1.7 1.7 0 0 1-2.094 0L6.653 26.423A1.7 1.7 0 0 1 6 25.085V3.34Z"/><path fill="url(#a)" d="M7.7 6.118a1.7 1.7 0 0 1 2.257-1.605l8.229 2.864a1.7 1.7 0 0 0 1.116 0l8.23-2.864a1.7 1.7 0 0 1 2.257 1.605v19.875a1.7 1.7 0 0 1-.61 1.305l-9.346 7.805a1.7 1.7 0 0 1-2.178 0l-9.346-7.805a1.7 1.7 0 0 1-.61-1.305V6.118Z"/><path fill="url(#b)" fill-rule="evenodd" d="M18.744 7.471a1.7 1.7 0 0 1-.558-.094l-8.23-2.864A1.7 1.7 0 0 0 7.7 6.118v19.875c0 .504.224.982.61 1.305l9.346 7.805c.315.263.702.395 1.09.395V7.47Z" clip-rule="evenodd"/><mask id="d" width="18" height="12" x="9.79785" y="11.4342" fill="#000" maskUnits="userSpaceOnUse"><path fill="#fff" d="M9.798 11.434h18v12h-18z"/><path d="M14.75 22.623c-1.15 0-2.068-.36-2.752-1.08-.684-.719-1.025-1.637-1.025-2.752 0-1.008.21-1.966.634-2.874a5.667 5.667 0 0 1 1.848-2.24 4.564 4.564 0 0 1 2.74-.877c1.16 0 2.082.36 2.766 1.08.684.719 1.025 1.636 1.025 2.752a6.764 6.764 0 0 1-.634 2.888 5.649 5.649 0 0 1-1.862 2.226 4.563 4.563 0 0 1-2.74.877Zm.23-2.307c.675 0 1.233-.378 1.673-1.134.45-.755.675-1.556.675-2.402 0-.54-.126-.949-.378-1.228-.243-.287-.571-.431-.985-.431-.675 0-1.232.377-1.673 1.133a4.693 4.693 0 0 0-.661 2.402c0 .54.121.954.364 1.241.243.28.571.419.985.419Zm6.653 2.118 1.862-6.976-1.578.378-.054-2.119 2.995-.796h1.903l-2.55 9.513h-2.578Z"/></mask><path fill="url(#c)" d="M14.75 22.623c-1.15 0-2.068-.36-2.752-1.08-.684-.719-1.025-1.637-1.025-2.752 0-1.008.21-1.966.634-2.874a5.667 5.667 0 0 1 1.848-2.24 4.564 4.564 0 0 1 2.74-.877c1.16 0 2.082.36 2.766 1.08.684.719 1.025 1.636 1.025 2.752a6.764 6.764 0 0 1-.634 2.888 5.649 5.649 0 0 1-1.862 2.226 4.563 4.563 0 0 1-2.74.877Zm.23-2.307c.675 0 1.233-.378 1.673-1.134.45-.755.675-1.556.675-2.402 0-.54-.126-.949-.378-1.228-.243-.287-.571-.431-.985-.431-.675 0-1.232.377-1.673 1.133a4.693 4.693 0 0 0-.661 2.402c0 .54.121.954.364 1.241.243.28.571.419.985.419Zm6.653 2.118 1.862-6.976-1.578.378-.054-2.119 2.995-.796h1.903l-2.55 9.513h-2.578Z"/><path fill="#D4D4D4" d="m11.998 21.544-.336.319.336-.32Zm-.391-5.627.42.195-.42-.195Zm1.848-2.24.272.375-.272-.375Zm5.506.202-.336.32.336-.32Zm.391 5.64.42.198v-.002l-.42-.195Zm-1.862 2.227-.27-.377-.001.002.271.375Zm-.837-2.564-.398-.237-.002.004.4.233Zm.297-3.63-.354.3.005.005.005.006.344-.31Zm-2.658.702-.4-.233.4.233Zm-.297 3.643-.354.3.005.005.35-.305Zm.756 2.263c-1.047 0-1.835-.323-2.417-.936l-.672.639c.785.826 1.832 1.223 3.089 1.223v-.926Zm-2.417-.936c-.592-.622-.898-1.42-.898-2.433h-.927c0 1.218.377 2.255 1.153 3.072l.672-.639Zm-.898-2.433c0-.94.197-1.832.59-2.679l-.84-.39a7.196 7.196 0 0 0-.677 3.069h.927Zm.59-2.679a5.204 5.204 0 0 1 1.7-2.06l-.542-.75a6.132 6.132 0 0 0-1.997 2.42l.84.39Zm1.7-2.06a4.101 4.101 0 0 1 2.469-.789v-.927c-1.113 0-2.12.322-3.01.965l.542.751Zm2.469-.789c1.056 0 1.849.323 2.43.935l.672-.638c-.786-.827-1.838-1.224-3.102-1.224v.927Zm2.43.935c.591.623.898 1.421.898 2.434h.927c0-1.218-.377-2.255-1.153-3.072l-.672.638Zm.898 2.434a6.31 6.31 0 0 1-.59 2.692l.84.391c.45-.97.677-2 .677-3.083h-.927Zm-.59 2.69a5.185 5.185 0 0 1-1.712 2.047l.538.754a6.112 6.112 0 0 0 2.012-2.406l-.838-.394Zm-1.714 2.049a4.1 4.1 0 0 1-2.468.789v.926a5.03 5.03 0 0 0 3.01-.964l-.542-.752Zm-2.239-.592c.889 0 1.578-.514 2.073-1.363l-.8-.467c-.386.662-.812.903-1.273.903v.927Zm2.072-1.36a5.09 5.09 0 0 0 .74-2.639h-.927c0 .76-.2 1.478-.61 2.165l.797.474Zm.74-2.639c0-.605-.141-1.143-.498-1.538l-.688.621c.148.163.259.443.259.917h.926Zm-.488-1.526c-.34-.404-.804-.597-1.339-.597v.927c.293 0 .486.095.631.267l.708-.597Zm-1.339-.597c-.889 0-1.578.514-2.073 1.364l.8.466c.386-.661.813-.903 1.273-.903v-.927Zm-2.073 1.364a5.156 5.156 0 0 0-.724 2.635h.926c0-.76.197-1.481.598-2.168l-.8-.467Zm-.724 2.635c0 .603.135 1.139.473 1.54l.708-.597c-.147-.175-.255-.466-.255-.943h-.926Zm.478 1.546c.342.392.804.577 1.334.577v-.927c-.298 0-.492-.094-.636-.259l-.698.609Zm7.987 2.232-.447-.12-.156.584h.603v-.464Zm1.862-6.976.448.12.2-.752-.755.181.107.451Zm-1.578.378-.464.012.015.571.556-.133-.107-.45Zm-.054-2.119-.12-.447-.353.094.01.365.463-.012Zm2.995-.796v-.463h-.06l-.059.015.12.448Zm1.903 0 .447.12.157-.583h-.604v.463Zm-2.55 9.513v.463h.355l.092-.343-.447-.12Zm-2.13.12 1.862-6.976-.895-.24-1.862 6.977.895.239Zm1.307-7.547-1.58.378.216.901 1.58-.378-.216-.9Zm-1.008.817-.054-2.118-.927.023.054 2.119.927-.024Zm-.398-1.659 2.995-.796-.238-.896-2.995.797.238.895Zm2.876-.78h1.903v-.927h-1.903v.926Zm1.455-.584-2.55 9.513.895.24 2.55-9.513-.895-.24Zm-2.102 9.17h-2.578v.927h2.578v-.927Z" mask="url(#d)"/><defs><linearGradient id="a" x1="18.744" x2="18.744" y1="3.72754" y2="36.0124" gradientUnits="userSpaceOnUse"><stop stop-color="#FF792D"/><stop offset="1" stop-color="#FF922D"/></linearGradient><linearGradient id="b" x1="18.7442" x2="18.7442" y1="3.72752" y2="36.0124" gradientUnits="userSpaceOnUse"><stop stop-color="#F67618"/><stop offset="1" stop-color="#FF7A00"/></linearGradient><linearGradient id="c" x1="18.2979" x2="18.2979" y1="12.4342" y2="25.4342" gradientUnits="userSpaceOnUse"><stop offset="0.43941" stop-color="#fff"/><stop offset="0.809217" stop-color="#C9C9C9"/></linearGradient></defs></svg>