<svg xmlns="http://www.w3.org/2000/svg" width="38" height="38" fill="none" viewBox="0 0 38 38"><path fill="#19459C" d="M6 3.34a1.7 1.7 0 0 1 2.226-1.615l9.992 3.256a1.7 1.7 0 0 0 1.052 0l9.992-3.256a1.7 1.7 0 0 1 2.226 1.616v21.744a1.7 1.7 0 0 1-.652 1.338L19.79 35.06a1.7 1.7 0 0 1-2.094 0L6.653 26.423A1.7 1.7 0 0 1 6 25.085V3.34Z"/><path fill="url(#a)" d="M7.7 6.118a1.7 1.7 0 0 1 2.257-1.605l8.229 2.864a1.7 1.7 0 0 0 1.116 0l8.23-2.864a1.7 1.7 0 0 1 2.257 1.605v19.875a1.7 1.7 0 0 1-.61 1.305l-9.346 7.805a1.7 1.7 0 0 1-2.178 0l-9.346-7.805a1.7 1.7 0 0 1-.61-1.305V6.118Z"/><path fill="url(#b)" fill-rule="evenodd" d="M18.744 7.471a1.7 1.7 0 0 1-.558-.094l-8.23-2.864A1.7 1.7 0 0 0 7.7 6.118v19.875c0 .504.224.982.61 1.305l9.346 7.805c.315.263.702.395 1.09.395V7.47Z" clip-rule="evenodd"/><mask id="d" width="20" height="12" x="8.79785" y="11.4342" fill="#000" maskUnits="userSpaceOnUse"><path fill="#fff" d="M8.798 11.434h20v12h-20z"/><path d="M13.354 22.623c-1.151 0-2.07-.36-2.753-1.08-.683-.719-1.025-1.637-1.025-2.752 0-1.008.211-1.966.634-2.874a5.667 5.667 0 0 1 1.849-2.24 4.564 4.564 0 0 1 2.739-.877c1.16 0 2.082.36 2.766 1.08.684.719 1.026 1.636 1.026 2.752a6.765 6.765 0 0 1-.635 2.888 5.649 5.649 0 0 1-1.862 2.226 4.564 4.564 0 0 1-2.74.877Zm.23-2.307c.674 0 1.232-.378 1.673-1.134.45-.755.674-1.556.674-2.402 0-.54-.126-.949-.378-1.228-.243-.287-.57-.431-.985-.431-.674 0-1.232.377-1.673 1.133a4.693 4.693 0 0 0-.661 2.402c0 .54.121.954.364 1.241.243.28.571.419.985.419Zm5.206 2.118.553-2.024 4.803-3.13c.73-.468 1.093-.936 1.093-1.404 0-.243-.08-.431-.242-.566-.153-.135-.378-.203-.675-.203-.63 0-1.345.392-2.146 1.174l-1.524-1.606c1.115-1.223 2.42-1.835 3.913-1.835 1.016 0 1.821.252 2.415.756.603.495.904 1.142.904 1.943 0 .594-.184 1.142-.553 1.646-.369.504-1.012 1.053-1.93 1.646l-2.307 1.471h3.765l-.58 2.132h-7.49Z"/></mask><path fill="url(#c)" d="M13.354 22.623c-1.151 0-2.07-.36-2.753-1.08-.683-.719-1.025-1.637-1.025-2.752 0-1.008.211-1.966.634-2.874a5.667 5.667 0 0 1 1.849-2.24 4.564 4.564 0 0 1 2.739-.877c1.16 0 2.082.36 2.766 1.08.684.719 1.026 1.636 1.026 2.752a6.765 6.765 0 0 1-.635 2.888 5.649 5.649 0 0 1-1.862 2.226 4.564 4.564 0 0 1-2.74.877Zm.23-2.307c.674 0 1.232-.378 1.673-1.134.45-.755.674-1.556.674-2.402 0-.54-.126-.949-.378-1.228-.243-.287-.57-.431-.985-.431-.674 0-1.232.377-1.673 1.133a4.693 4.693 0 0 0-.661 2.402c0 .54.121.954.364 1.241.243.28.571.419.985.419Zm5.206 2.118.553-2.024 4.803-3.13c.73-.468 1.093-.936 1.093-1.404 0-.243-.08-.431-.242-.566-.153-.135-.378-.203-.675-.203-.63 0-1.345.392-2.146 1.174l-1.524-1.606c1.115-1.223 2.42-1.835 3.913-1.835 1.016 0 1.821.252 2.415.756.603.495.904 1.142.904 1.943 0 .594-.184 1.142-.553 1.646-.369.504-1.012 1.053-1.93 1.646l-2.307 1.471h3.765l-.58 2.132h-7.49Z"/><path fill="#D4D4D4" d="m10.601 21.544-.336.319.336-.32Zm-.391-5.627.42.195-.42-.195Zm1.849-2.24.27.375-.27-.375Zm5.505.202-.336.32.336-.32Zm.391 5.64.42.198v-.002l-.42-.195Zm-1.862 2.227-.27-.377-.001.002.271.375Zm-.836-2.564-.399-.237-.002.004.4.233Zm.296-3.63-.354.3.005.005.006.006.343-.31Zm-2.658.702-.4-.233.4.233Zm-.297 3.643-.354.3.005.005.35-.305Zm.756 2.263c-1.047 0-1.835-.323-2.417-.936l-.672.639c.786.826 1.833 1.223 3.089 1.223v-.926Zm-2.417-.936c-.591-.622-.898-1.42-.898-2.433h-.927c0 1.218.378 2.255 1.153 3.072l.672-.639Zm-.898-2.433c0-.94.197-1.832.59-2.679l-.84-.39a7.195 7.195 0 0 0-.677 3.069h.927Zm.59-2.679a5.205 5.205 0 0 1 1.7-2.06l-.542-.75a6.132 6.132 0 0 0-1.997 2.42l.84.39Zm1.7-2.06a4.101 4.101 0 0 1 2.469-.789v-.927c-1.112 0-2.12.322-3.01.965l.542.751Zm2.469-.789c1.057 0 1.849.323 2.43.935l.672-.638c-.786-.827-1.838-1.224-3.102-1.224v.927Zm2.43.935c.592.623.898 1.421.898 2.434h.927c0-1.218-.377-2.255-1.153-3.072l-.672.638Zm.898 2.434a6.31 6.31 0 0 1-.59 2.692l.84.391c.451-.97.677-2 .677-3.083h-.927Zm-.59 2.69a5.185 5.185 0 0 1-1.712 2.047l.538.754a6.112 6.112 0 0 0 2.013-2.406l-.839-.394Zm-1.714 2.049a4.107 4.107 0 0 1-2.468.789v.926a5.03 5.03 0 0 0 3.01-.964l-.542-.752Zm-2.239-.592c.89 0 1.578-.514 2.074-1.363l-.8-.467c-.387.662-.813.903-1.274.903v.927Zm2.072-1.36a5.09 5.09 0 0 0 .74-2.639h-.927c0 .76-.2 1.478-.61 2.165l.797.474Zm.74-2.639c0-.605-.141-1.143-.498-1.538l-.687.621c.147.163.258.443.258.917h.927Zm-.487-1.526c-.34-.404-.804-.597-1.34-.597v.927c.293 0 .486.095.631.267l.709-.597Zm-1.34-.597c-.888 0-1.577.514-2.073 1.364l.8.466c.386-.661.813-.903 1.273-.903v-.927Zm-2.073 1.364a5.156 5.156 0 0 0-.724 2.635h.926c0-.76.197-1.481.598-2.168l-.8-.467Zm-.724 2.635c0 .603.135 1.139.473 1.54l.708-.597c-.147-.175-.255-.466-.255-.943h-.926Zm.478 1.546c.342.392.804.577 1.334.577v-.927c-.297 0-.492-.094-.635-.259l-.699.609Zm6.54 2.232-.446-.122-.16.585h.607v-.463Zm.554-2.024-.253-.388-.148.096-.046.17.447.122Zm4.803-3.13-.25-.39-.003.002.253.388Zm.85-1.97-.306.347.01.008.297-.355Zm-2.82.971-.336.32.324.34.336-.329-.324-.33Zm-1.524-1.606-.343-.312-.29.319.297.312.336-.319Zm6.328-1.08-.3.354.006.005.294-.358Zm.351 3.59-.374-.273.374.273Zm-1.93 1.646.25.391.002-.002-.252-.389Zm-2.307 1.471-.25-.39-1.339.854h1.589v-.464Zm3.765 0 .447.122.159-.585h-.606v.463Zm-.58 2.132v.463h.354l.093-.341-.447-.122Zm-7.043.122.554-2.024-.894-.244-.553 2.024.893.244Zm.36-1.758 4.803-3.13-.506-.776-4.803 3.13.506.776Zm4.8-3.128c.753-.483 1.307-1.072 1.307-1.794h-.927c0 .214-.174.56-.88 1.014l.5.78Zm1.307-1.794c0-.357-.126-.685-.41-.922l-.593.711c.04.033.076.083.076.211h.927Zm-.4-.914c-.269-.237-.622-.318-.981-.318v.926c.234 0 .331.054.368.087l.613-.695Zm-.981-.318c-.816 0-1.644.499-2.47 1.306l.648.662c.776-.758 1.378-1.042 1.822-1.042v-.926Zm-1.81 1.318-1.524-1.606-.672.638L21.84 16.6l.672-.638Zm-1.518-.974c1.038-1.14 2.223-1.684 3.57-1.684v-.927c-1.638 0-3.062.678-4.255 1.986l.685.625Zm3.57-1.684c.942 0 1.63.232 2.116.645l.6-.706c-.7-.595-1.623-.866-2.715-.866v.926Zm2.122.65c.492.404.735.919.735 1.585h.927c0-.935-.36-1.716-1.074-2.301l-.588.716Zm.735 1.585c0 .49-.15.944-.464 1.373l.748.547a3.192 3.192 0 0 0 .643-1.92h-.927Zm-.464 1.373c-.32.436-.907.948-1.807 1.53l.503.778c.935-.605 1.634-1.19 2.052-1.761l-.748-.547Zm-1.805 1.529-2.307 1.47.498.782 2.307-1.47-.498-.782Zm-2.058 2.325h3.765v-.927h-3.765v.927Zm3.318-.585-.58 2.131.893.244.58-2.132-.893-.244Zm-.133 1.79h-7.49v.927h7.49v-.927Z" mask="url(#d)"/><defs><linearGradient id="a" x1="18.744" x2="18.744" y1="3.72754" y2="36.0124" gradientUnits="userSpaceOnUse"><stop stop-color="#2DC0FF"/><stop offset="1" stop-color="#02A4FF"/></linearGradient><linearGradient id="b" x1="18.7442" x2="18.7442" y1="3.72752" y2="36.0124" gradientUnits="userSpaceOnUse"><stop stop-color="#17A5E4"/><stop offset="1" stop-color="#0D8ED6"/></linearGradient><linearGradient id="c" x1="18.2979" x2="18.2979" y1="12.4342" y2="25.4342" gradientUnits="userSpaceOnUse"><stop offset="0.43941" stop-color="#fff"/><stop offset="0.809217" stop-color="#C9C9C9"/></linearGradient></defs></svg>