<svg xmlns="http://www.w3.org/2000/svg" width="38" height="38" fill="none" viewBox="0 0 38 38"><path fill="#167714" d="M6 3.34a1.7 1.7 0 0 1 2.226-1.615l9.992 3.256a1.7 1.7 0 0 0 1.052 0l9.992-3.256a1.7 1.7 0 0 1 2.226 1.616v21.744a1.7 1.7 0 0 1-.652 1.338L19.79 35.06a1.7 1.7 0 0 1-2.094 0L6.653 26.423A1.7 1.7 0 0 1 6 25.085V3.34Z"/><path fill="url(#a)" d="M7.7 6.118a1.7 1.7 0 0 1 2.257-1.605l8.229 2.864a1.7 1.7 0 0 0 1.116 0l8.23-2.864a1.7 1.7 0 0 1 2.257 1.605v19.875a1.7 1.7 0 0 1-.61 1.305l-9.346 7.805a1.7 1.7 0 0 1-2.178 0l-9.346-7.805a1.7 1.7 0 0 1-.61-1.305V6.118Z"/><path fill="url(#b)" fill-rule="evenodd" d="M18.744 7.471a1.7 1.7 0 0 1-.558-.094l-8.23-2.864A1.7 1.7 0 0 0 7.7 6.118v19.875c0 .504.224.982.61 1.305l9.346 7.805c.315.263.702.395 1.09.395V7.47Z" clip-rule="evenodd"/><mask id="d" width="21" height="12" x="8.79785" y="11.4342" fill="#000" maskUnits="userSpaceOnUse"><path fill="#fff" d="M8.798 11.434h21v12h-21z"/><path d="M13.46 22.623c-1.152 0-2.07-.36-2.753-1.08-.684-.719-1.026-1.637-1.026-2.752a6.74 6.74 0 0 1 .634-2.874 5.668 5.668 0 0 1 1.849-2.24 4.564 4.564 0 0 1 2.74-.877c1.16 0 2.082.36 2.765 1.08.684.719 1.026 1.636 1.026 2.752a6.779 6.779 0 0 1-.634 2.888 5.649 5.649 0 0 1-1.862 2.226 4.563 4.563 0 0 1-2.74.877Zm.229-2.307c.674 0 1.232-.378 1.673-1.134.45-.755.675-1.556.675-2.402 0-.54-.126-.949-.378-1.228-.243-.287-.571-.431-.985-.431-.675 0-1.233.377-1.673 1.133a4.693 4.693 0 0 0-.662 2.402c0 .54.122.954.365 1.241.243.28.571.419.985.419Zm9.106 2.307c-1.7 0-2.96-.607-3.779-1.822l1.782-1.47c.53.701 1.196 1.052 1.997 1.052.458 0 .836-.112 1.133-.337.297-.225.445-.486.445-.783 0-.576-.49-.863-1.47-.863h-.905l-.053-1.35 2.644-1.943h-3.535l.567-2.118h6.827l-.512 1.875-2.888 2.01c1.277.352 1.916 1.116 1.916 2.295 0 1.025-.387 1.857-1.16 2.496-.774.639-1.777.958-3.01.958Z"/></mask><path fill="url(#c)" d="M13.46 22.623c-1.152 0-2.07-.36-2.753-1.08-.684-.719-1.026-1.637-1.026-2.752a6.74 6.74 0 0 1 .634-2.874 5.668 5.668 0 0 1 1.849-2.24 4.564 4.564 0 0 1 2.74-.877c1.16 0 2.082.36 2.765 1.08.684.719 1.026 1.636 1.026 2.752a6.779 6.779 0 0 1-.634 2.888 5.649 5.649 0 0 1-1.862 2.226 4.563 4.563 0 0 1-2.74.877Zm.229-2.307c.674 0 1.232-.378 1.673-1.134.45-.755.675-1.556.675-2.402 0-.54-.126-.949-.378-1.228-.243-.287-.571-.431-.985-.431-.675 0-1.233.377-1.673 1.133a4.693 4.693 0 0 0-.662 2.402c0 .54.122.954.365 1.241.243.28.571.419.985.419Zm9.106 2.307c-1.7 0-2.96-.607-3.779-1.822l1.782-1.47c.53.701 1.196 1.052 1.997 1.052.458 0 .836-.112 1.133-.337.297-.225.445-.486.445-.783 0-.576-.49-.863-1.47-.863h-.905l-.053-1.35 2.644-1.943h-3.535l.567-2.118h6.827l-.512 1.875-2.888 2.01c1.277.352 1.916 1.116 1.916 2.295 0 1.025-.387 1.857-1.16 2.496-.774.639-1.777.958-3.01.958Z"/><path fill="#D4D4D4" d="m10.707 21.544-.336.319.336-.32Zm-.392-5.627.42.195-.42-.195Zm1.849-2.24.271.375-.271-.375Zm5.505.202-.335.32.335-.32Zm.392 5.64.419.198v-.002l-.42-.195Zm-1.862 2.227-.27-.377-.002.002.272.375Zm-.837-2.564-.398-.237-.002.004.4.233Zm.297-3.63-.354.3.005.005.005.006.344-.31ZM13 16.254l-.4-.233.4.233Zm-.297 3.643-.354.3.004.005.35-.305Zm.755 2.263c-1.046 0-1.834-.323-2.416-.936l-.672.639c.785.826 1.832 1.223 3.088 1.223v-.926Zm-2.416-.936c-.592-.622-.899-1.42-.899-2.433h-.926c0 1.218.377 2.255 1.153 3.072l.671-.639Zm-.899-2.433c0-.94.197-1.832.591-2.679l-.84-.39a7.195 7.195 0 0 0-.677 3.069h.926Zm.591-2.679a5.204 5.204 0 0 1 1.7-2.06l-.542-.75a6.132 6.132 0 0 0-1.998 2.42l.84.39Zm1.7-2.06a4.101 4.101 0 0 1 2.468-.789v-.927c-1.112 0-2.12.322-3.01.965l.542.751Zm2.468-.789c1.057 0 1.85.323 2.43.935l.672-.638c-.786-.827-1.838-1.224-3.102-1.224v.927Zm2.43.935c.592.623.899 1.421.899 2.434h.926c0-1.218-.377-2.255-1.153-3.072l-.671.638Zm.899 2.434c0 .95-.197 1.846-.591 2.692l.84.391c.451-.97.677-2 .677-3.083h-.926Zm-.59 2.69a5.184 5.184 0 0 1-1.713 2.047l.539.754a6.113 6.113 0 0 0 2.012-2.406l-.839-.394Zm-1.715 2.049a4.1 4.1 0 0 1-2.468.789v.926a5.03 5.03 0 0 0 3.01-.964l-.542-.752Zm-2.238-.592c.889 0 1.578-.514 2.073-1.363l-.8-.467c-.386.662-.813.903-1.273.903v.927Zm2.071-1.36a5.09 5.09 0 0 0 .74-2.639h-.927c0 .76-.2 1.478-.61 2.165l.797.474Zm.74-2.639c0-.605-.14-1.143-.497-1.538l-.688.621c.147.163.258.443.258.917h.927Zm-.487-1.526c-.34-.404-.804-.597-1.34-.597v.927c.293 0 .486.095.632.267l.708-.597Zm-1.34-.597c-.888 0-1.577.514-2.073 1.364l.8.466c.387-.661.813-.903 1.274-.903v-.927ZM12.6 16.021a5.156 5.156 0 0 0-.724 2.635h.927c0-.76.197-1.481.598-2.168l-.8-.467Zm-.724 2.635c0 .603.135 1.139.474 1.54l.708-.597c-.147-.175-.255-.466-.255-.943h-.927Zm.478 1.546c.342.392.805.577 1.335.577v-.927c-.298 0-.492-.094-.636-.259l-.699.609Zm6.662.6-.295-.358-.324.268.235.348.384-.258Zm1.782-1.471.369-.28-.292-.385-.372.307.294.358Zm3.13.715-.28-.37.28.37Zm-1.93-1.646-.463.018.018.445h.445V18.4Zm-.053-1.35-.275-.373-.198.146.01.246.463-.019Zm2.644-1.943.274.373 1.14-.836h-1.414v.463Zm-3.535 0-.448-.12-.156.583h.604v-.463Zm.567-2.118v-.464h-.356l-.092.344.448.12Zm6.827 0 .447.122.16-.586h-.607v.464Zm-.512 1.875.264.38.138-.095.044-.163-.446-.122Zm-2.888 2.01-.265-.38-.811.566.953.262.123-.447Zm.756 4.791.295.357-.295-.357Zm-3.01.495c-1.574 0-2.676-.553-3.393-1.617l-.769.517c.92 1.365 2.337 2.026 4.163 2.026v-.926Zm-3.483-1.001 1.782-1.471-.59-.715-1.782 1.471.59.715Zm1.117-1.549c.608.804 1.405 1.236 2.367 1.236v-.926c-.64 0-1.175-.27-1.628-.869l-.739.56Zm2.367 1.236c.535 0 1.018-.132 1.413-.43l-.56-.74c-.199.151-.472.244-.853.244v.926Zm1.413-.43c.38-.289.629-.675.629-1.153h-.927c0 .116-.048.252-.262.414l.56.738Zm.629-1.153c0-.45-.208-.819-.597-1.047-.35-.206-.817-.28-1.337-.28v.927c.46 0 .729.07.868.152.101.06.14.122.14.248h.926Zm-1.934-1.327h-.905v.927h.904v-.927Zm-.442.445-.054-1.35-.925.038.053 1.35.926-.038Zm-.242-.957 2.644-1.944-.548-.746-2.645 1.943.549.747Zm2.37-2.78h-3.535v.926h3.535v-.926Zm-3.088.583.567-2.119-.895-.24-.567 2.12.895.239Zm.12-1.775h6.827v-.927h-6.827v.927Zm6.38-.585-.512 1.875.893.244.513-1.875-.893-.245Zm-.33 1.617-2.888 2.01.53.761 2.887-2.01-.53-.76Zm-2.746 2.838c.578.158.963.397 1.204.686.238.285.372.66.372 1.16h.926c0-.676-.185-1.273-.586-1.754-.397-.475-.97-.794-1.67-.986l-.246.893Zm1.576 1.847c0 .89-.328 1.59-.992 2.139l.59.714c.883-.729 1.328-1.693 1.328-2.853h-.926Zm-.992 2.139c-.673.555-1.564.852-2.714.852v.926c1.314 0 2.43-.342 3.304-1.064l-.59-.714Z" mask="url(#d)"/><defs><linearGradient id="a" x1="18.744" x2="18.744" y1="3.72754" y2="36.0124" gradientUnits="userSpaceOnUse"><stop stop-color="#66DB30"/><stop offset="1" stop-color="#179C1C"/></linearGradient><linearGradient id="b" x1="18.7442" x2="18.7442" y1="3.72752" y2="36.0124" gradientUnits="userSpaceOnUse"><stop stop-color="#229926"/><stop offset="1" stop-color="#197A1D"/></linearGradient><linearGradient id="c" x1="18.2979" x2="18.2979" y1="12.4342" y2="25.4342" gradientUnits="userSpaceOnUse"><stop offset="0.43941" stop-color="#fff"/><stop offset="0.809217" stop-color="#C9C9C9"/></linearGradient></defs></svg>