<svg xmlns="http://www.w3.org/2000/svg" width="38" height="38" fill="none" viewBox="0 0 38 38"><path fill="#1F0D51" d="M6 3.34a1.7 1.7 0 0 1 2.226-1.615l9.992 3.256a1.7 1.7 0 0 0 1.052 0l9.992-3.256a1.7 1.7 0 0 1 2.226 1.616v21.744a1.7 1.7 0 0 1-.652 1.338L19.79 35.06a1.7 1.7 0 0 1-2.094 0L6.653 26.423A1.7 1.7 0 0 1 6 25.085V3.34Z"/><path fill="url(#a)" d="M7.7 6.118a1.7 1.7 0 0 1 2.257-1.605l8.229 2.864a1.7 1.7 0 0 0 1.116 0l8.23-2.864a1.7 1.7 0 0 1 2.257 1.605v19.875a1.7 1.7 0 0 1-.61 1.305l-9.346 7.805a1.7 1.7 0 0 1-2.178 0l-9.346-7.805a1.7 1.7 0 0 1-.61-1.305V6.118Z"/><path fill="url(#b)" fill-rule="evenodd" d="M18.744 7.471a1.7 1.7 0 0 1-.558-.094l-8.23-2.864A1.7 1.7 0 0 0 7.7 6.118v19.875c0 .504.224.982.61 1.305l9.346 7.805c.315.263.702.395 1.09.395V7.47Z" clip-rule="evenodd"/><mask id="d" width="20" height="11" x="8.79785" y="12.4342" fill="#000" maskUnits="userSpaceOnUse"><path fill="#fff" d="M8.798 12.434h20v11h-20z"/><path d="M13.135 22.616c-1.11 0-1.993-.346-2.652-1.04-.659-.693-.988-1.577-.988-2.652 0-.97.204-1.893.61-2.769a5.461 5.461 0 0 1 1.782-2.158 4.397 4.397 0 0 1 2.639-.845c1.118 0 2.006.347 2.665 1.04.659.694.988 1.578.988 2.652 0 .98-.204 1.907-.611 2.782a5.441 5.441 0 0 1-1.794 2.145 4.4 4.4 0 0 1-2.64.845Zm.22-2.223c.65 0 1.188-.364 1.613-1.092.433-.728.65-1.5.65-2.314 0-.52-.121-.914-.364-1.183-.234-.277-.55-.416-.95-.416-.65 0-1.186.364-1.611 1.092a4.522 4.522 0 0 0-.637 2.314c0 .52.117.919.35 1.196.235.269.551.403.95.403Zm9.642 2.041.468-1.768H19.29l-.273-1.846 6.188-5.55h2.666l-1.47 5.511h1.157l-.52 1.885h-1.144l-.48 1.768h-2.418Zm-1.17-3.64h2.144l.69-2.587-2.835 2.587Z"/></mask><path fill="url(#c)" d="M13.135 22.616c-1.11 0-1.993-.346-2.652-1.04-.659-.693-.988-1.577-.988-2.652 0-.97.204-1.893.61-2.769a5.461 5.461 0 0 1 1.782-2.158 4.397 4.397 0 0 1 2.639-.845c1.118 0 2.006.347 2.665 1.04.659.694.988 1.578.988 2.652 0 .98-.204 1.907-.611 2.782a5.441 5.441 0 0 1-1.794 2.145 4.4 4.4 0 0 1-2.64.845Zm.22-2.223c.65 0 1.188-.364 1.613-1.092.433-.728.65-1.5.65-2.314 0-.52-.121-.914-.364-1.183-.234-.277-.55-.416-.95-.416-.65 0-1.186.364-1.611 1.092a4.522 4.522 0 0 0-.637 2.314c0 .52.117.919.35 1.196.235.269.551.403.95.403Zm9.642 2.041.468-1.768H19.29l-.273-1.846 6.188-5.55h2.666l-1.47 5.511h1.157l-.52 1.885h-1.144l-.48 1.768h-2.418Zm-1.17-3.64h2.144l.69-2.587-2.835 2.587Z"/><path fill="#D4D4D4" d="m10.483 21.576-.336.32.336-.32Zm-.377-5.42.42.195-.42-.196Zm1.78-2.159.272.376-.271-.376Zm5.305.195-.336.32.336-.32Zm.377 5.434.42.197v-.001l-.42-.196Zm-1.794 2.145-.27-.377-.001.002.27.375Zm-.806-2.47-.398-.237-.002.004.4.233Zm.286-3.497-.354.299.005.006.005.006.344-.31Zm-2.561.676-.4-.233.4.233Zm-.286 3.51-.354.299.005.005.349-.304Zm.728 2.163c-1.005 0-1.76-.31-2.316-.896l-.672.638c.76.8 1.774 1.184 2.988 1.184v-.926Zm-2.316-.896c-.567-.596-.86-1.361-.86-2.333h-.927c0 1.178.364 2.181 1.115 2.971l.672-.638Zm-.86-2.333c0-.903.188-1.76.567-2.573l-.84-.391a6.95 6.95 0 0 0-.654 2.964h.926Zm.567-2.573a4.997 4.997 0 0 1 1.632-1.978l-.542-.751a5.924 5.924 0 0 0-1.93 2.338l.84.39Zm1.632-1.978a3.933 3.933 0 0 1 2.368-.757v-.927a4.86 4.86 0 0 0-2.91.933l.542.75Zm2.368-.757c1.014 0 1.773.31 2.329.895l.672-.638c-.761-.8-1.78-1.184-3.001-1.184v.927Zm2.329.895c.567.597.86 1.361.86 2.333h.927c0-1.177-.364-2.18-1.115-2.97l-.672.637Zm.86 2.333c0 .913-.189 1.773-.567 2.587l.84.39a6.978 6.978 0 0 0 .654-2.977h-.926Zm-.566 2.585a4.978 4.978 0 0 1-1.644 1.965l.538.754a5.905 5.905 0 0 0 1.944-2.325l-.838-.394Zm-1.646 1.967c-.7.505-1.484.757-2.368.757v.927a4.86 4.86 0 0 0 2.91-.933l-.542-.751Zm-2.147-.54c.864 0 1.533-.5 2.012-1.321l-.8-.467c-.37.634-.776.862-1.212.862v.927Zm2.01-1.318c.474-.797.715-1.65.715-2.55h-.926c0 .727-.193 1.417-.585 2.076l.796.474Zm.715-2.55c0-.586-.136-1.11-.483-1.494l-.688.62c.138.153.245.418.245.873h.926Zm-.473-1.482c-.331-.393-.783-.581-1.303-.581v.926c.277 0 .458.09.595.252l.708-.598Zm-1.303-.581c-.864 0-1.533.5-2.012 1.322l.8.467c.37-.634.776-.862 1.212-.862v-.927Zm-2.012 1.322a4.984 4.984 0 0 0-.7 2.547h.926c0-.73.19-1.42.574-2.08l-.8-.467Zm-.7 2.547c0 .583.13 1.104.46 1.495l.708-.598c-.138-.164-.242-.44-.242-.897h-.926Zm.465 1.5c.333.383.783.563 1.298.563v-.927c-.283 0-.465-.09-.6-.244l-.698.608Zm10.939 2.14-.448-.118-.154.582h.602v-.464Zm.468-1.768.447.119.154-.582h-.601v.463Zm-4.174 0-.458.068.059.395h.4v-.463Zm-.273-1.846-.309-.345-.185.167.036.246.459-.068Zm6.188-5.55v-.464h-.177l-.132.118.31.345Zm2.666 0 .447.119.155-.583h-.602v.463Zm-1.47 5.511-.447-.12-.155.583h.602v-.463Zm1.157 0 .447.123.162-.586h-.608v.463Zm-.52 1.885v.463h.353l.094-.34-.447-.123Zm-1.144 0v-.463h-.354l-.093.342.447.121Zm-.48 1.768v.463h.354l.093-.341-.447-.122Zm-3.588-3.64-.313-.342-.882.805h1.194v-.463Zm2.144 0v.463h.357l.091-.344-.448-.119Zm.69-2.587.447.12.407-1.527-1.167 1.065.313.342Zm-1.217 6.346.468-1.768-.895-.237-.468 1.768.895.237Zm.02-2.35h-4.172v.927h4.172v-.927Zm-3.714.395-.273-1.846-.917.136.273 1.846.917-.136Zm-.422-1.433 6.188-5.55-.619-.69-6.188 5.55.619.69Zm5.878-5.432h2.666v-.927h-2.666v.927Zm2.218-.583-1.47 5.512.896.239 1.47-5.512-.896-.24Zm-1.021 6.094h1.157v-.926h-1.157v.926Zm.71-.586-.52 1.885.893.246.52-1.885-.893-.246Zm-.073 1.545h-1.145v.927h1.145v-.927Zm-1.591.342-.482 1.768.895.243.48-1.768-.893-.243Zm-.035 1.426h-2.418v.927h2.419v-.927Zm-3.588-2.713h2.145v-.927h-2.145v.927Zm2.593-.345.69-2.587-.896-.238-.69 2.587.896.238Zm-.07-3.048-2.835 2.587.625.684 2.834-2.587-.625-.684Z" mask="url(#d)"/><defs><linearGradient id="a" x1="18.744" x2="18.744" y1="3.72754" y2="36.0124" gradientUnits="userSpaceOnUse"><stop stop-color="#7647FC"/><stop offset="1" stop-color="#581EFF"/></linearGradient><linearGradient id="b" x1="18.7442" x2="18.7442" y1="3.72752" y2="36.0124" gradientUnits="userSpaceOnUse"><stop stop-color="#522FB9"/><stop offset="1" stop-color="#42259A"/></linearGradient><linearGradient id="c" x1="18.2979" x2="18.2979" y1="12.4342" y2="25.4342" gradientUnits="userSpaceOnUse"><stop offset="0.43941" stop-color="#fff"/><stop offset="0.809217" stop-color="#C9C9C9"/></linearGradient></defs></svg>