<svg xmlns="http://www.w3.org/2000/svg" width="38" height="38" fill="none" viewBox="0 0 38 38"><path fill="#611246" d="M6 3.34a1.7 1.7 0 0 1 2.226-1.615l9.992 3.256a1.7 1.7 0 0 0 1.052 0l9.992-3.256a1.7 1.7 0 0 1 2.226 1.616v21.744a1.7 1.7 0 0 1-.652 1.338L19.79 35.06a1.7 1.7 0 0 1-2.094 0L6.653 26.423A1.7 1.7 0 0 1 6 25.085V3.34Z"/><path fill="url(#a)" d="M7.7 6.118a1.7 1.7 0 0 1 2.257-1.605l8.229 2.864a1.7 1.7 0 0 0 1.116 0l8.23-2.864a1.7 1.7 0 0 1 2.257 1.605v19.875a1.7 1.7 0 0 1-.61 1.305l-9.346 7.805a1.7 1.7 0 0 1-2.178 0l-9.346-7.805a1.7 1.7 0 0 1-.61-1.305V6.118Z"/><path fill="url(#b)" fill-rule="evenodd" d="M18.744 7.471a1.7 1.7 0 0 1-.558-.094l-8.23-2.864A1.7 1.7 0 0 0 7.7 6.118v19.875c0 .504.224.982.61 1.305l9.346 7.805c.315.263.702.395 1.09.395V7.47Z" clip-rule="evenodd"/><mask id="d" width="21" height="12" x="8.79785" y="11.4342" fill="#000" maskUnits="userSpaceOnUse"><path fill="#fff" d="M8.798 11.434h21v12h-21z"/><path d="M13.387 22.623c-1.152 0-2.07-.36-2.753-1.08-.684-.719-1.025-1.637-1.025-2.752 0-1.008.211-1.966.634-2.874a5.668 5.668 0 0 1 1.848-2.24 4.564 4.564 0 0 1 2.74-.877c1.16 0 2.082.36 2.766 1.08.684.719 1.025 1.636 1.025 2.752a6.764 6.764 0 0 1-.634 2.888 5.649 5.649 0 0 1-1.862 2.226 4.563 4.563 0 0 1-2.74.877Zm.23-2.307c.674 0 1.232-.378 1.672-1.134.45-.755.675-1.556.675-2.402 0-.54-.126-.949-.378-1.228-.242-.287-.57-.431-.985-.431-.674 0-1.232.377-1.673 1.133a4.693 4.693 0 0 0-.661 2.402c0 .54.121.954.364 1.241.243.28.572.419.985.419Zm9.304 2.294a5.249 5.249 0 0 1-2.2-.486c-.7-.324-1.24-.72-1.618-1.188l1.646-1.538c.684.666 1.435.999 2.253.999.486 0 .882-.122 1.188-.365.306-.252.458-.557.458-.917a.883.883 0 0 0-.364-.729c-.234-.189-.58-.283-1.039-.283-.459 0-.904.13-1.336.391l-1.336-.931 1.498-4.574h6.234l-.58 2.159h-4.129l-.432 1.308c.369-.125.77-.188 1.201-.188.873 0 1.574.238 2.105.715.54.468.81 1.102.81 1.902 0 1.062-.405 1.948-1.215 2.659-.8.71-1.848 1.066-3.144 1.066Z"/></mask><path fill="url(#c)" d="M13.387 22.623c-1.152 0-2.07-.36-2.753-1.08-.684-.719-1.025-1.637-1.025-2.752 0-1.008.211-1.966.634-2.874a5.668 5.668 0 0 1 1.848-2.24 4.564 4.564 0 0 1 2.74-.877c1.16 0 2.082.36 2.766 1.08.684.719 1.025 1.636 1.025 2.752a6.764 6.764 0 0 1-.634 2.888 5.649 5.649 0 0 1-1.862 2.226 4.563 4.563 0 0 1-2.74.877Zm.23-2.307c.674 0 1.232-.378 1.672-1.134.45-.755.675-1.556.675-2.402 0-.54-.126-.949-.378-1.228-.242-.287-.57-.431-.985-.431-.674 0-1.232.377-1.673 1.133a4.693 4.693 0 0 0-.661 2.402c0 .54.121.954.364 1.241.243.28.572.419.985.419Zm9.304 2.294a5.249 5.249 0 0 1-2.2-.486c-.7-.324-1.24-.72-1.618-1.188l1.646-1.538c.684.666 1.435.999 2.253.999.486 0 .882-.122 1.188-.365.306-.252.458-.557.458-.917a.883.883 0 0 0-.364-.729c-.234-.189-.58-.283-1.039-.283-.459 0-.904.13-1.336.391l-1.336-.931 1.498-4.574h6.234l-.58 2.159h-4.129l-.432 1.308c.369-.125.77-.188 1.201-.188.873 0 1.574.238 2.105.715.54.468.81 1.102.81 1.902 0 1.062-.405 1.948-1.215 2.659-.8.71-1.848 1.066-3.144 1.066Z"/><path fill="#D4D4D4" d="m10.634 21.544-.336.319.336-.32Zm-.391-5.627.42.195-.42-.195Zm1.848-2.24.272.375-.271-.375Zm5.506.202-.336.32.336-.32Zm.391 5.64.42.198v-.002l-.42-.195Zm-1.862 2.227-.27-.377-.001.002.271.375Zm-.837-2.564-.398-.237-.002.004.4.233Zm.297-3.63-.354.3.005.005.006.006.343-.31Zm-2.658.702-.4-.233.4.233Zm-.297 3.643-.354.3.005.005.35-.305Zm.756 2.263c-1.047 0-1.835-.323-2.417-.936l-.672.639c.786.826 1.833 1.223 3.089 1.223v-.926Zm-2.417-.936c-.591-.622-.898-1.42-.898-2.433h-.927c0 1.218.377 2.255 1.153 3.072l.672-.639Zm-.898-2.433c0-.94.197-1.832.59-2.679l-.84-.39a7.195 7.195 0 0 0-.677 3.069h.927Zm.59-2.679a5.204 5.204 0 0 1 1.7-2.06l-.542-.75a6.13 6.13 0 0 0-1.997 2.42l.84.39Zm1.7-2.06a4.101 4.101 0 0 1 2.469-.789v-.927c-1.112 0-2.12.322-3.01.965l.542.751Zm2.469-.789c1.056 0 1.849.323 2.43.935l.672-.638c-.786-.827-1.838-1.224-3.102-1.224v.927Zm2.43.935c.592.623.898 1.421.898 2.434h.927c0-1.218-.377-2.255-1.153-3.072l-.672.638Zm.898 2.434a6.31 6.31 0 0 1-.59 2.692l.84.391c.451-.97.677-2 .677-3.083h-.927Zm-.59 2.69a5.185 5.185 0 0 1-1.712 2.047l.538.754a6.112 6.112 0 0 0 2.012-2.406l-.838-.394Zm-1.714 2.049a4.107 4.107 0 0 1-2.468.789v.926a5.03 5.03 0 0 0 3.01-.964l-.542-.752Zm-2.239-.592c.889 0 1.578-.514 2.074-1.363l-.8-.467c-.387.662-.813.903-1.274.903v.927Zm2.072-1.36a5.09 5.09 0 0 0 .74-2.639H15.5c0 .76-.2 1.478-.61 2.165l.797.474Zm.74-2.639c0-.605-.141-1.143-.498-1.538l-.687.621c.147.163.258.443.258.917h.926Zm-.488-1.526c-.34-.404-.804-.597-1.339-.597v.927c.293 0 .486.095.631.267l.708-.597Zm-1.339-.597c-.888 0-1.578.514-2.073 1.364l.8.466c.386-.661.813-.903 1.273-.903v-.927Zm-2.073 1.364a5.156 5.156 0 0 0-.724 2.635h.926c0-.76.197-1.481.598-2.168l-.8-.467Zm-.724 2.635c0 .603.135 1.139.473 1.54l.708-.597c-.147-.175-.255-.466-.255-.943h-.926Zm.478 1.546c.342.392.804.577 1.334.577v-.927c-.297 0-.492-.094-.635-.259l-.7.609Zm8.44 1.922-.194.42.002.001.192-.421Zm-1.62-1.188-.316-.338-.315.294.271.335.36-.29Zm1.647-1.538.323-.332-.317-.308-.322.302.316.338Zm3.44.634.289.363.006-.005-.294-.358Zm.095-1.646-.29.36.006.006.284-.366Zm-2.375.108-.265.38.247.172.258-.155-.24-.397Zm-1.336-.931-.44-.144-.107.327.282.197.265-.38Zm1.498-4.574v-.464h-.336l-.104.32.44.144Zm6.234 0 .448.12.157-.584h-.605v.464Zm-.58 2.159v.463h.355l.093-.343-.448-.12Zm-4.129 0v-.464h-.335l-.105.319.44.145Zm-.432 1.308-.44-.145-.291.885.88-.301-.149-.439Zm3.306.527-.31.345.007.005.303-.35Zm-.405 4.56-.305-.348-.002.002.307.347Zm-3.144.603a4.786 4.786 0 0 1-2.007-.444l-.384.843c.769.35 1.567.528 2.391.528v-.927Zm-2.005-.443c-.655-.302-1.13-.659-1.453-1.058l-.72.582c.433.537 1.036.972 1.785 1.317l.388-.84Zm-1.497-.428 1.646-1.538-.632-.677-1.647 1.538.633.677Zm1.007-1.545c.754.735 1.617 1.13 2.576 1.13v-.927c-.678 0-1.317-.27-1.93-.867l-.646.664Zm2.576 1.13c.565 0 1.07-.142 1.476-.465l-.576-.726c-.206.164-.492.264-.9.264v.927Zm1.482-.47c.4-.33.628-.762.628-1.275h-.927c0 .206-.078.386-.29.56l.59.715Zm.628-1.275c0-.446-.192-.822-.543-1.095l-.57.732a.422.422 0 0 1 .186.363h.927Zm-.537-1.09c-.35-.282-.818-.385-1.33-.385v.926c.406 0 .63.085.748.18l.582-.72Zm-1.33-.385a3.01 3.01 0 0 0-1.575.457l.479.794c.367-.222.73-.325 1.096-.325v-.926Zm-1.07.474-1.337-.931-.53.76 1.336.931.53-.76Zm-1.161-.407 1.498-4.574-.881-.288-1.498 4.574.88.288Zm1.057-4.255h6.234v-.927h-6.234v.927Zm5.787-.584-.58 2.16.895.24.58-2.16-.895-.24Zm-.133 1.816h-4.129v.927h4.13v-.927Zm-4.569.319-.432 1.308.88.29.432-1.308-.88-.29Zm.158 1.892a3.232 3.232 0 0 1 1.051-.164v-.927c-.477 0-.929.07-1.35.214l.299.877Zm1.051-.164c.785 0 1.368.212 1.796.596l.619-.689c-.634-.57-1.455-.834-2.415-.834v.927Zm1.802.602c.425.368.65.868.65 1.552h.926c0-.916-.315-1.685-.97-2.252l-.606.7Zm.65 1.552c0 .926-.346 1.686-1.057 2.31l.611.697c.908-.797 1.372-1.81 1.372-3.007h-.926Zm-1.06 2.312c-.698.62-1.629.95-2.836.95v.926c1.384 0 2.55-.382 3.452-1.183l-.615-.693Z" mask="url(#d)"/><defs><linearGradient id="a" x1="18.744" x2="18.744" y1="3.72754" y2="36.0124" gradientUnits="userSpaceOnUse"><stop stop-color="#FF49C2"/><stop offset="1" stop-color="#FF2BB6"/></linearGradient><linearGradient id="b" x1="18.7442" x2="18.7442" y1="3.72752" y2="36.0124" gradientUnits="userSpaceOnUse"><stop stop-color="#C22F90"/><stop offset="1" stop-color="#9F2275"/></linearGradient><linearGradient id="c" x1="18.2979" x2="18.2979" y1="12.4342" y2="25.4342" gradientUnits="userSpaceOnUse"><stop offset="0.43941" stop-color="#fff"/><stop offset="0.809217" stop-color="#C9C9C9"/></linearGradient></defs></svg>